%TF.GenerationSoftware,KiCad,Pcbnew,8.0.4*%
%TF.CreationDate,2026-07-14T18:47:22-05:00*%
%TF.ProjectId,code of claw translator,636f6465-206f-4662-9063-6c6177207472,rev?*%
%TF.SameCoordinates,Original*%
%TF.FileFunction,Legend,Top*%
%TF.FilePolarity,Positive*%
%FSLAX46Y46*%
G04 Gerber Fmt 4.6, Leading zero omitted, Abs format (unit mm)*
G04 Created by KiCad (PCBNEW 8.0.4) date 2026-07-14 18:47:22*
%MOMM*%
%LPD*%
G01*
G04 APERTURE LIST*
%ADD10C,0.100000*%
%ADD11C,0.200000*%
%ADD12C,0.120000*%
G04 APERTURE END LIST*
D10*
X77566115Y-98138533D02*
X76804211Y-98138533D01*
X76328020Y-98424247D02*
X75566116Y-98138533D01*
X75566116Y-98138533D02*
X76328020Y-97852819D01*
X89403884Y-106161466D02*
X90165789Y-106161466D01*
X90641979Y-105875752D02*
X91403884Y-106161466D01*
X91403884Y-106161466D02*
X90641979Y-106447180D01*
X72923408Y-100750704D02*
X72885312Y-100788800D01*
X72885312Y-100788800D02*
X72771027Y-100826895D01*
X72771027Y-100826895D02*
X72694836Y-100826895D01*
X72694836Y-100826895D02*
X72580550Y-100788800D01*
X72580550Y-100788800D02*
X72504360Y-100712609D01*
X72504360Y-100712609D02*
X72466265Y-100636419D01*
X72466265Y-100636419D02*
X72428169Y-100484038D01*
X72428169Y-100484038D02*
X72428169Y-100369752D01*
X72428169Y-100369752D02*
X72466265Y-100217371D01*
X72466265Y-100217371D02*
X72504360Y-100141180D01*
X72504360Y-100141180D02*
X72580550Y-100064990D01*
X72580550Y-100064990D02*
X72694836Y-100026895D01*
X72694836Y-100026895D02*
X72771027Y-100026895D01*
X72771027Y-100026895D02*
X72885312Y-100064990D01*
X72885312Y-100064990D02*
X72923408Y-100103085D01*
X73380550Y-100826895D02*
X73304360Y-100788800D01*
X73304360Y-100788800D02*
X73266265Y-100750704D01*
X73266265Y-100750704D02*
X73228169Y-100674514D01*
X73228169Y-100674514D02*
X73228169Y-100445942D01*
X73228169Y-100445942D02*
X73266265Y-100369752D01*
X73266265Y-100369752D02*
X73304360Y-100331657D01*
X73304360Y-100331657D02*
X73380550Y-100293561D01*
X73380550Y-100293561D02*
X73494836Y-100293561D01*
X73494836Y-100293561D02*
X73571027Y-100331657D01*
X73571027Y-100331657D02*
X73609122Y-100369752D01*
X73609122Y-100369752D02*
X73647217Y-100445942D01*
X73647217Y-100445942D02*
X73647217Y-100674514D01*
X73647217Y-100674514D02*
X73609122Y-100750704D01*
X73609122Y-100750704D02*
X73571027Y-100788800D01*
X73571027Y-100788800D02*
X73494836Y-100826895D01*
X73494836Y-100826895D02*
X73380550Y-100826895D01*
X73990075Y-100293561D02*
X73990075Y-100826895D01*
X73990075Y-100369752D02*
X74028170Y-100331657D01*
X74028170Y-100331657D02*
X74104360Y-100293561D01*
X74104360Y-100293561D02*
X74218646Y-100293561D01*
X74218646Y-100293561D02*
X74294837Y-100331657D01*
X74294837Y-100331657D02*
X74332932Y-100407847D01*
X74332932Y-100407847D02*
X74332932Y-100826895D01*
X74713885Y-100293561D02*
X74713885Y-100826895D01*
X74713885Y-100369752D02*
X74751980Y-100331657D01*
X74751980Y-100331657D02*
X74828170Y-100293561D01*
X74828170Y-100293561D02*
X74942456Y-100293561D01*
X74942456Y-100293561D02*
X75018647Y-100331657D01*
X75018647Y-100331657D02*
X75056742Y-100407847D01*
X75056742Y-100407847D02*
X75056742Y-100826895D01*
X75742457Y-100788800D02*
X75666266Y-100826895D01*
X75666266Y-100826895D02*
X75513885Y-100826895D01*
X75513885Y-100826895D02*
X75437695Y-100788800D01*
X75437695Y-100788800D02*
X75399599Y-100712609D01*
X75399599Y-100712609D02*
X75399599Y-100407847D01*
X75399599Y-100407847D02*
X75437695Y-100331657D01*
X75437695Y-100331657D02*
X75513885Y-100293561D01*
X75513885Y-100293561D02*
X75666266Y-100293561D01*
X75666266Y-100293561D02*
X75742457Y-100331657D01*
X75742457Y-100331657D02*
X75780552Y-100407847D01*
X75780552Y-100407847D02*
X75780552Y-100484038D01*
X75780552Y-100484038D02*
X75399599Y-100560228D01*
X76466266Y-100788800D02*
X76390075Y-100826895D01*
X76390075Y-100826895D02*
X76237694Y-100826895D01*
X76237694Y-100826895D02*
X76161504Y-100788800D01*
X76161504Y-100788800D02*
X76123409Y-100750704D01*
X76123409Y-100750704D02*
X76085313Y-100674514D01*
X76085313Y-100674514D02*
X76085313Y-100445942D01*
X76085313Y-100445942D02*
X76123409Y-100369752D01*
X76123409Y-100369752D02*
X76161504Y-100331657D01*
X76161504Y-100331657D02*
X76237694Y-100293561D01*
X76237694Y-100293561D02*
X76390075Y-100293561D01*
X76390075Y-100293561D02*
X76466266Y-100331657D01*
X76694837Y-100293561D02*
X76999599Y-100293561D01*
X76809123Y-100026895D02*
X76809123Y-100712609D01*
X76809123Y-100712609D02*
X76847218Y-100788800D01*
X76847218Y-100788800D02*
X76923408Y-100826895D01*
X76923408Y-100826895D02*
X76999599Y-100826895D01*
X77799599Y-100293561D02*
X77951980Y-100826895D01*
X77951980Y-100826895D02*
X78104361Y-100445942D01*
X78104361Y-100445942D02*
X78256742Y-100826895D01*
X78256742Y-100826895D02*
X78409123Y-100293561D01*
X78713885Y-100826895D02*
X78713885Y-100293561D01*
X78713885Y-100026895D02*
X78675789Y-100064990D01*
X78675789Y-100064990D02*
X78713885Y-100103085D01*
X78713885Y-100103085D02*
X78751980Y-100064990D01*
X78751980Y-100064990D02*
X78713885Y-100026895D01*
X78713885Y-100026895D02*
X78713885Y-100103085D01*
X78980551Y-100293561D02*
X79285313Y-100293561D01*
X79094837Y-100026895D02*
X79094837Y-100712609D01*
X79094837Y-100712609D02*
X79132932Y-100788800D01*
X79132932Y-100788800D02*
X79209122Y-100826895D01*
X79209122Y-100826895D02*
X79285313Y-100826895D01*
X79551980Y-100826895D02*
X79551980Y-100026895D01*
X79894837Y-100826895D02*
X79894837Y-100407847D01*
X79894837Y-100407847D02*
X79856742Y-100331657D01*
X79856742Y-100331657D02*
X79780551Y-100293561D01*
X79780551Y-100293561D02*
X79666265Y-100293561D01*
X79666265Y-100293561D02*
X79590075Y-100331657D01*
X79590075Y-100331657D02*
X79551980Y-100369752D01*
X80847218Y-100788800D02*
X80923409Y-100826895D01*
X80923409Y-100826895D02*
X81075790Y-100826895D01*
X81075790Y-100826895D02*
X81151980Y-100788800D01*
X81151980Y-100788800D02*
X81190076Y-100712609D01*
X81190076Y-100712609D02*
X81190076Y-100674514D01*
X81190076Y-100674514D02*
X81151980Y-100598323D01*
X81151980Y-100598323D02*
X81075790Y-100560228D01*
X81075790Y-100560228D02*
X80961504Y-100560228D01*
X80961504Y-100560228D02*
X80885314Y-100522133D01*
X80885314Y-100522133D02*
X80847218Y-100445942D01*
X80847218Y-100445942D02*
X80847218Y-100407847D01*
X80847218Y-100407847D02*
X80885314Y-100331657D01*
X80885314Y-100331657D02*
X80961504Y-100293561D01*
X80961504Y-100293561D02*
X81075790Y-100293561D01*
X81075790Y-100293561D02*
X81151980Y-100331657D01*
X81456742Y-100293561D02*
X81609123Y-100826895D01*
X81609123Y-100826895D02*
X81761504Y-100445942D01*
X81761504Y-100445942D02*
X81913885Y-100826895D01*
X81913885Y-100826895D02*
X82066266Y-100293561D01*
X82371028Y-100826895D02*
X82371028Y-100293561D01*
X82371028Y-100026895D02*
X82332932Y-100064990D01*
X82332932Y-100064990D02*
X82371028Y-100103085D01*
X82371028Y-100103085D02*
X82409123Y-100064990D01*
X82409123Y-100064990D02*
X82371028Y-100026895D01*
X82371028Y-100026895D02*
X82371028Y-100103085D01*
X82637694Y-100293561D02*
X82942456Y-100293561D01*
X82751980Y-100026895D02*
X82751980Y-100712609D01*
X82751980Y-100712609D02*
X82790075Y-100788800D01*
X82790075Y-100788800D02*
X82866265Y-100826895D01*
X82866265Y-100826895D02*
X82942456Y-100826895D01*
X83551980Y-100788800D02*
X83475789Y-100826895D01*
X83475789Y-100826895D02*
X83323408Y-100826895D01*
X83323408Y-100826895D02*
X83247218Y-100788800D01*
X83247218Y-100788800D02*
X83209123Y-100750704D01*
X83209123Y-100750704D02*
X83171027Y-100674514D01*
X83171027Y-100674514D02*
X83171027Y-100445942D01*
X83171027Y-100445942D02*
X83209123Y-100369752D01*
X83209123Y-100369752D02*
X83247218Y-100331657D01*
X83247218Y-100331657D02*
X83323408Y-100293561D01*
X83323408Y-100293561D02*
X83475789Y-100293561D01*
X83475789Y-100293561D02*
X83551980Y-100331657D01*
X83894837Y-100826895D02*
X83894837Y-100026895D01*
X84237694Y-100826895D02*
X84237694Y-100407847D01*
X84237694Y-100407847D02*
X84199599Y-100331657D01*
X84199599Y-100331657D02*
X84123408Y-100293561D01*
X84123408Y-100293561D02*
X84009122Y-100293561D01*
X84009122Y-100293561D02*
X83932932Y-100331657D01*
X83932932Y-100331657D02*
X83894837Y-100369752D01*
X114624211Y-87074247D02*
X115386115Y-86788533D01*
X115386115Y-86788533D02*
X114624211Y-86502819D01*
X114148020Y-86788533D02*
X113386116Y-86788533D01*
X80448169Y-46658800D02*
X80562455Y-46696895D01*
X80562455Y-46696895D02*
X80752931Y-46696895D01*
X80752931Y-46696895D02*
X80829122Y-46658800D01*
X80829122Y-46658800D02*
X80867217Y-46620704D01*
X80867217Y-46620704D02*
X80905312Y-46544514D01*
X80905312Y-46544514D02*
X80905312Y-46468323D01*
X80905312Y-46468323D02*
X80867217Y-46392133D01*
X80867217Y-46392133D02*
X80829122Y-46354038D01*
X80829122Y-46354038D02*
X80752931Y-46315942D01*
X80752931Y-46315942D02*
X80600550Y-46277847D01*
X80600550Y-46277847D02*
X80524360Y-46239752D01*
X80524360Y-46239752D02*
X80486265Y-46201657D01*
X80486265Y-46201657D02*
X80448169Y-46125466D01*
X80448169Y-46125466D02*
X80448169Y-46049276D01*
X80448169Y-46049276D02*
X80486265Y-45973085D01*
X80486265Y-45973085D02*
X80524360Y-45934990D01*
X80524360Y-45934990D02*
X80600550Y-45896895D01*
X80600550Y-45896895D02*
X80791027Y-45896895D01*
X80791027Y-45896895D02*
X80905312Y-45934990D01*
X81248170Y-46696895D02*
X81248170Y-45896895D01*
X81248170Y-45896895D02*
X81552932Y-45896895D01*
X81552932Y-45896895D02*
X81629122Y-45934990D01*
X81629122Y-45934990D02*
X81667217Y-45973085D01*
X81667217Y-45973085D02*
X81705313Y-46049276D01*
X81705313Y-46049276D02*
X81705313Y-46163561D01*
X81705313Y-46163561D02*
X81667217Y-46239752D01*
X81667217Y-46239752D02*
X81629122Y-46277847D01*
X81629122Y-46277847D02*
X81552932Y-46315942D01*
X81552932Y-46315942D02*
X81248170Y-46315942D01*
X82048170Y-46696895D02*
X82048170Y-45896895D01*
X82048170Y-46277847D02*
X82505313Y-46277847D01*
X82505313Y-46696895D02*
X82505313Y-45896895D01*
X83038646Y-45896895D02*
X83114836Y-45896895D01*
X83114836Y-45896895D02*
X83191027Y-45934990D01*
X83191027Y-45934990D02*
X83229122Y-45973085D01*
X83229122Y-45973085D02*
X83267217Y-46049276D01*
X83267217Y-46049276D02*
X83305312Y-46201657D01*
X83305312Y-46201657D02*
X83305312Y-46392133D01*
X83305312Y-46392133D02*
X83267217Y-46544514D01*
X83267217Y-46544514D02*
X83229122Y-46620704D01*
X83229122Y-46620704D02*
X83191027Y-46658800D01*
X83191027Y-46658800D02*
X83114836Y-46696895D01*
X83114836Y-46696895D02*
X83038646Y-46696895D01*
X83038646Y-46696895D02*
X82962455Y-46658800D01*
X82962455Y-46658800D02*
X82924360Y-46620704D01*
X82924360Y-46620704D02*
X82886265Y-46544514D01*
X82886265Y-46544514D02*
X82848169Y-46392133D01*
X82848169Y-46392133D02*
X82848169Y-46201657D01*
X82848169Y-46201657D02*
X82886265Y-46049276D01*
X82886265Y-46049276D02*
X82924360Y-45973085D01*
X82924360Y-45973085D02*
X82962455Y-45934990D01*
X82962455Y-45934990D02*
X83038646Y-45896895D01*
X83991027Y-45896895D02*
X83838646Y-45896895D01*
X83838646Y-45896895D02*
X83762455Y-45934990D01*
X83762455Y-45934990D02*
X83724360Y-45973085D01*
X83724360Y-45973085D02*
X83648170Y-46087371D01*
X83648170Y-46087371D02*
X83610074Y-46239752D01*
X83610074Y-46239752D02*
X83610074Y-46544514D01*
X83610074Y-46544514D02*
X83648170Y-46620704D01*
X83648170Y-46620704D02*
X83686265Y-46658800D01*
X83686265Y-46658800D02*
X83762455Y-46696895D01*
X83762455Y-46696895D02*
X83914836Y-46696895D01*
X83914836Y-46696895D02*
X83991027Y-46658800D01*
X83991027Y-46658800D02*
X84029122Y-46620704D01*
X84029122Y-46620704D02*
X84067217Y-46544514D01*
X84067217Y-46544514D02*
X84067217Y-46354038D01*
X84067217Y-46354038D02*
X84029122Y-46277847D01*
X84029122Y-46277847D02*
X83991027Y-46239752D01*
X83991027Y-46239752D02*
X83914836Y-46201657D01*
X83914836Y-46201657D02*
X83762455Y-46201657D01*
X83762455Y-46201657D02*
X83686265Y-46239752D01*
X83686265Y-46239752D02*
X83648170Y-46277847D01*
X83648170Y-46277847D02*
X83610074Y-46354038D01*
X84752932Y-46163561D02*
X84752932Y-46696895D01*
X84562456Y-45858800D02*
X84371979Y-46430228D01*
X84371979Y-46430228D02*
X84867218Y-46430228D01*
X85552932Y-45896895D02*
X85171980Y-45896895D01*
X85171980Y-45896895D02*
X85133884Y-46277847D01*
X85133884Y-46277847D02*
X85171980Y-46239752D01*
X85171980Y-46239752D02*
X85248170Y-46201657D01*
X85248170Y-46201657D02*
X85438646Y-46201657D01*
X85438646Y-46201657D02*
X85514837Y-46239752D01*
X85514837Y-46239752D02*
X85552932Y-46277847D01*
X85552932Y-46277847D02*
X85591027Y-46354038D01*
X85591027Y-46354038D02*
X85591027Y-46544514D01*
X85591027Y-46544514D02*
X85552932Y-46620704D01*
X85552932Y-46620704D02*
X85514837Y-46658800D01*
X85514837Y-46658800D02*
X85438646Y-46696895D01*
X85438646Y-46696895D02*
X85248170Y-46696895D01*
X85248170Y-46696895D02*
X85171980Y-46658800D01*
X85171980Y-46658800D02*
X85133884Y-46620704D01*
X86314837Y-46696895D02*
X85933885Y-46696895D01*
X85933885Y-46696895D02*
X85933885Y-45896895D01*
X86581504Y-46696895D02*
X86581504Y-45896895D01*
X86581504Y-45896895D02*
X86848170Y-46468323D01*
X86848170Y-46468323D02*
X87114837Y-45896895D01*
X87114837Y-45896895D02*
X87114837Y-46696895D01*
X87838647Y-46163561D02*
X87838647Y-46696895D01*
X87648171Y-45858800D02*
X87457694Y-46430228D01*
X87457694Y-46430228D02*
X87952933Y-46430228D01*
X88257695Y-46696895D02*
X88257695Y-45896895D01*
X88257695Y-46277847D02*
X88714838Y-46277847D01*
X88714838Y-46696895D02*
X88714838Y-45896895D01*
X115632931Y-133737847D02*
X115747217Y-133775942D01*
X115747217Y-133775942D02*
X115785312Y-133814038D01*
X115785312Y-133814038D02*
X115823408Y-133890228D01*
X115823408Y-133890228D02*
X115823408Y-134004514D01*
X115823408Y-134004514D02*
X115785312Y-134080704D01*
X115785312Y-134080704D02*
X115747217Y-134118800D01*
X115747217Y-134118800D02*
X115671027Y-134156895D01*
X115671027Y-134156895D02*
X115366265Y-134156895D01*
X115366265Y-134156895D02*
X115366265Y-133356895D01*
X115366265Y-133356895D02*
X115632931Y-133356895D01*
X115632931Y-133356895D02*
X115709122Y-133394990D01*
X115709122Y-133394990D02*
X115747217Y-133433085D01*
X115747217Y-133433085D02*
X115785312Y-133509276D01*
X115785312Y-133509276D02*
X115785312Y-133585466D01*
X115785312Y-133585466D02*
X115747217Y-133661657D01*
X115747217Y-133661657D02*
X115709122Y-133699752D01*
X115709122Y-133699752D02*
X115632931Y-133737847D01*
X115632931Y-133737847D02*
X115366265Y-133737847D01*
X116509122Y-134156895D02*
X116509122Y-133737847D01*
X116509122Y-133737847D02*
X116471027Y-133661657D01*
X116471027Y-133661657D02*
X116394836Y-133623561D01*
X116394836Y-133623561D02*
X116242455Y-133623561D01*
X116242455Y-133623561D02*
X116166265Y-133661657D01*
X116509122Y-134118800D02*
X116432931Y-134156895D01*
X116432931Y-134156895D02*
X116242455Y-134156895D01*
X116242455Y-134156895D02*
X116166265Y-134118800D01*
X116166265Y-134118800D02*
X116128169Y-134042609D01*
X116128169Y-134042609D02*
X116128169Y-133966419D01*
X116128169Y-133966419D02*
X116166265Y-133890228D01*
X116166265Y-133890228D02*
X116242455Y-133852133D01*
X116242455Y-133852133D02*
X116432931Y-133852133D01*
X116432931Y-133852133D02*
X116509122Y-133814038D01*
X117232932Y-134118800D02*
X117156741Y-134156895D01*
X117156741Y-134156895D02*
X117004360Y-134156895D01*
X117004360Y-134156895D02*
X116928170Y-134118800D01*
X116928170Y-134118800D02*
X116890075Y-134080704D01*
X116890075Y-134080704D02*
X116851979Y-134004514D01*
X116851979Y-134004514D02*
X116851979Y-133775942D01*
X116851979Y-133775942D02*
X116890075Y-133699752D01*
X116890075Y-133699752D02*
X116928170Y-133661657D01*
X116928170Y-133661657D02*
X117004360Y-133623561D01*
X117004360Y-133623561D02*
X117156741Y-133623561D01*
X117156741Y-133623561D02*
X117232932Y-133661657D01*
X117575789Y-134156895D02*
X117575789Y-133356895D01*
X117651979Y-133852133D02*
X117880551Y-134156895D01*
X117880551Y-133623561D02*
X117575789Y-133928323D01*
X118185312Y-134118800D02*
X118261503Y-134156895D01*
X118261503Y-134156895D02*
X118413884Y-134156895D01*
X118413884Y-134156895D02*
X118490074Y-134118800D01*
X118490074Y-134118800D02*
X118528170Y-134042609D01*
X118528170Y-134042609D02*
X118528170Y-134004514D01*
X118528170Y-134004514D02*
X118490074Y-133928323D01*
X118490074Y-133928323D02*
X118413884Y-133890228D01*
X118413884Y-133890228D02*
X118299598Y-133890228D01*
X118299598Y-133890228D02*
X118223408Y-133852133D01*
X118223408Y-133852133D02*
X118185312Y-133775942D01*
X118185312Y-133775942D02*
X118185312Y-133737847D01*
X118185312Y-133737847D02*
X118223408Y-133661657D01*
X118223408Y-133661657D02*
X118299598Y-133623561D01*
X118299598Y-133623561D02*
X118413884Y-133623561D01*
X118413884Y-133623561D02*
X118490074Y-133661657D01*
X118871027Y-133623561D02*
X118871027Y-134423561D01*
X118871027Y-133661657D02*
X118947217Y-133623561D01*
X118947217Y-133623561D02*
X119099598Y-133623561D01*
X119099598Y-133623561D02*
X119175789Y-133661657D01*
X119175789Y-133661657D02*
X119213884Y-133699752D01*
X119213884Y-133699752D02*
X119251979Y-133775942D01*
X119251979Y-133775942D02*
X119251979Y-134004514D01*
X119251979Y-134004514D02*
X119213884Y-134080704D01*
X119213884Y-134080704D02*
X119175789Y-134118800D01*
X119175789Y-134118800D02*
X119099598Y-134156895D01*
X119099598Y-134156895D02*
X118947217Y-134156895D01*
X118947217Y-134156895D02*
X118871027Y-134118800D01*
X119937694Y-134156895D02*
X119937694Y-133737847D01*
X119937694Y-133737847D02*
X119899599Y-133661657D01*
X119899599Y-133661657D02*
X119823408Y-133623561D01*
X119823408Y-133623561D02*
X119671027Y-133623561D01*
X119671027Y-133623561D02*
X119594837Y-133661657D01*
X119937694Y-134118800D02*
X119861503Y-134156895D01*
X119861503Y-134156895D02*
X119671027Y-134156895D01*
X119671027Y-134156895D02*
X119594837Y-134118800D01*
X119594837Y-134118800D02*
X119556741Y-134042609D01*
X119556741Y-134042609D02*
X119556741Y-133966419D01*
X119556741Y-133966419D02*
X119594837Y-133890228D01*
X119594837Y-133890228D02*
X119671027Y-133852133D01*
X119671027Y-133852133D02*
X119861503Y-133852133D01*
X119861503Y-133852133D02*
X119937694Y-133814038D01*
X120661504Y-134118800D02*
X120585313Y-134156895D01*
X120585313Y-134156895D02*
X120432932Y-134156895D01*
X120432932Y-134156895D02*
X120356742Y-134118800D01*
X120356742Y-134118800D02*
X120318647Y-134080704D01*
X120318647Y-134080704D02*
X120280551Y-134004514D01*
X120280551Y-134004514D02*
X120280551Y-133775942D01*
X120280551Y-133775942D02*
X120318647Y-133699752D01*
X120318647Y-133699752D02*
X120356742Y-133661657D01*
X120356742Y-133661657D02*
X120432932Y-133623561D01*
X120432932Y-133623561D02*
X120585313Y-133623561D01*
X120585313Y-133623561D02*
X120661504Y-133661657D01*
X121309123Y-134118800D02*
X121232932Y-134156895D01*
X121232932Y-134156895D02*
X121080551Y-134156895D01*
X121080551Y-134156895D02*
X121004361Y-134118800D01*
X121004361Y-134118800D02*
X120966265Y-134042609D01*
X120966265Y-134042609D02*
X120966265Y-133737847D01*
X120966265Y-133737847D02*
X121004361Y-133661657D01*
X121004361Y-133661657D02*
X121080551Y-133623561D01*
X121080551Y-133623561D02*
X121232932Y-133623561D01*
X121232932Y-133623561D02*
X121309123Y-133661657D01*
X121309123Y-133661657D02*
X121347218Y-133737847D01*
X121347218Y-133737847D02*
X121347218Y-133814038D01*
X121347218Y-133814038D02*
X120966265Y-133890228D01*
X78964247Y-128085789D02*
X78678533Y-127323884D01*
X78678533Y-127323884D02*
X78392819Y-128085789D01*
X78678533Y-128561979D02*
X78678533Y-129323884D01*
X113428169Y-81268800D02*
X113542455Y-81306895D01*
X113542455Y-81306895D02*
X113732931Y-81306895D01*
X113732931Y-81306895D02*
X113809122Y-81268800D01*
X113809122Y-81268800D02*
X113847217Y-81230704D01*
X113847217Y-81230704D02*
X113885312Y-81154514D01*
X113885312Y-81154514D02*
X113885312Y-81078323D01*
X113885312Y-81078323D02*
X113847217Y-81002133D01*
X113847217Y-81002133D02*
X113809122Y-80964038D01*
X113809122Y-80964038D02*
X113732931Y-80925942D01*
X113732931Y-80925942D02*
X113580550Y-80887847D01*
X113580550Y-80887847D02*
X113504360Y-80849752D01*
X113504360Y-80849752D02*
X113466265Y-80811657D01*
X113466265Y-80811657D02*
X113428169Y-80735466D01*
X113428169Y-80735466D02*
X113428169Y-80659276D01*
X113428169Y-80659276D02*
X113466265Y-80583085D01*
X113466265Y-80583085D02*
X113504360Y-80544990D01*
X113504360Y-80544990D02*
X113580550Y-80506895D01*
X113580550Y-80506895D02*
X113771027Y-80506895D01*
X113771027Y-80506895D02*
X113885312Y-80544990D01*
X114571027Y-81268800D02*
X114494836Y-81306895D01*
X114494836Y-81306895D02*
X114342455Y-81306895D01*
X114342455Y-81306895D02*
X114266265Y-81268800D01*
X114266265Y-81268800D02*
X114228170Y-81230704D01*
X114228170Y-81230704D02*
X114190074Y-81154514D01*
X114190074Y-81154514D02*
X114190074Y-80925942D01*
X114190074Y-80925942D02*
X114228170Y-80849752D01*
X114228170Y-80849752D02*
X114266265Y-80811657D01*
X114266265Y-80811657D02*
X114342455Y-80773561D01*
X114342455Y-80773561D02*
X114494836Y-80773561D01*
X114494836Y-80773561D02*
X114571027Y-80811657D01*
X114913884Y-81306895D02*
X114913884Y-80773561D01*
X114913884Y-80925942D02*
X114951979Y-80849752D01*
X114951979Y-80849752D02*
X114990074Y-80811657D01*
X114990074Y-80811657D02*
X115066265Y-80773561D01*
X115066265Y-80773561D02*
X115142455Y-80773561D01*
X115751979Y-81306895D02*
X115751979Y-80887847D01*
X115751979Y-80887847D02*
X115713884Y-80811657D01*
X115713884Y-80811657D02*
X115637693Y-80773561D01*
X115637693Y-80773561D02*
X115485312Y-80773561D01*
X115485312Y-80773561D02*
X115409122Y-80811657D01*
X115751979Y-81268800D02*
X115675788Y-81306895D01*
X115675788Y-81306895D02*
X115485312Y-81306895D01*
X115485312Y-81306895D02*
X115409122Y-81268800D01*
X115409122Y-81268800D02*
X115371026Y-81192609D01*
X115371026Y-81192609D02*
X115371026Y-81116419D01*
X115371026Y-81116419D02*
X115409122Y-81040228D01*
X115409122Y-81040228D02*
X115485312Y-81002133D01*
X115485312Y-81002133D02*
X115675788Y-81002133D01*
X115675788Y-81002133D02*
X115751979Y-80964038D01*
X116018646Y-80773561D02*
X116323408Y-80773561D01*
X116132932Y-80506895D02*
X116132932Y-81192609D01*
X116132932Y-81192609D02*
X116171027Y-81268800D01*
X116171027Y-81268800D02*
X116247217Y-81306895D01*
X116247217Y-81306895D02*
X116323408Y-81306895D01*
X116932932Y-81268800D02*
X116856741Y-81306895D01*
X116856741Y-81306895D02*
X116704360Y-81306895D01*
X116704360Y-81306895D02*
X116628170Y-81268800D01*
X116628170Y-81268800D02*
X116590075Y-81230704D01*
X116590075Y-81230704D02*
X116551979Y-81154514D01*
X116551979Y-81154514D02*
X116551979Y-80925942D01*
X116551979Y-80925942D02*
X116590075Y-80849752D01*
X116590075Y-80849752D02*
X116628170Y-80811657D01*
X116628170Y-80811657D02*
X116704360Y-80773561D01*
X116704360Y-80773561D02*
X116856741Y-80773561D01*
X116856741Y-80773561D02*
X116932932Y-80811657D01*
X117275789Y-81306895D02*
X117275789Y-80506895D01*
X117618646Y-81306895D02*
X117618646Y-80887847D01*
X117618646Y-80887847D02*
X117580551Y-80811657D01*
X117580551Y-80811657D02*
X117504360Y-80773561D01*
X117504360Y-80773561D02*
X117390074Y-80773561D01*
X117390074Y-80773561D02*
X117313884Y-80811657D01*
X117313884Y-80811657D02*
X117275789Y-80849752D01*
D11*
X68090625Y-62014193D02*
X68507292Y-63264193D01*
X68507292Y-63264193D02*
X68923958Y-62014193D01*
X69876340Y-63264193D02*
X69876340Y-62609431D01*
X69876340Y-62609431D02*
X69816816Y-62490384D01*
X69816816Y-62490384D02*
X69697768Y-62430860D01*
X69697768Y-62430860D02*
X69459673Y-62430860D01*
X69459673Y-62430860D02*
X69340626Y-62490384D01*
X69876340Y-63204670D02*
X69757292Y-63264193D01*
X69757292Y-63264193D02*
X69459673Y-63264193D01*
X69459673Y-63264193D02*
X69340626Y-63204670D01*
X69340626Y-63204670D02*
X69281102Y-63085622D01*
X69281102Y-63085622D02*
X69281102Y-62966574D01*
X69281102Y-62966574D02*
X69340626Y-62847527D01*
X69340626Y-62847527D02*
X69459673Y-62788003D01*
X69459673Y-62788003D02*
X69757292Y-62788003D01*
X69757292Y-62788003D02*
X69876340Y-62728479D01*
X70471578Y-62430860D02*
X70471578Y-63264193D01*
X70471578Y-62549908D02*
X70531101Y-62490384D01*
X70531101Y-62490384D02*
X70650149Y-62430860D01*
X70650149Y-62430860D02*
X70828720Y-62430860D01*
X70828720Y-62430860D02*
X70947768Y-62490384D01*
X70947768Y-62490384D02*
X71007292Y-62609431D01*
X71007292Y-62609431D02*
X71007292Y-63264193D01*
X72138244Y-63264193D02*
X72138244Y-62014193D01*
X72138244Y-63204670D02*
X72019196Y-63264193D01*
X72019196Y-63264193D02*
X71781101Y-63264193D01*
X71781101Y-63264193D02*
X71662053Y-63204670D01*
X71662053Y-63204670D02*
X71602530Y-63145146D01*
X71602530Y-63145146D02*
X71543006Y-63026098D01*
X71543006Y-63026098D02*
X71543006Y-62668955D01*
X71543006Y-62668955D02*
X71602530Y-62549908D01*
X71602530Y-62549908D02*
X71662053Y-62490384D01*
X71662053Y-62490384D02*
X71781101Y-62430860D01*
X71781101Y-62430860D02*
X72019196Y-62430860D01*
X72019196Y-62430860D02*
X72138244Y-62490384D01*
X73269196Y-63264193D02*
X73269196Y-62609431D01*
X73269196Y-62609431D02*
X73209672Y-62490384D01*
X73209672Y-62490384D02*
X73090624Y-62430860D01*
X73090624Y-62430860D02*
X72852529Y-62430860D01*
X72852529Y-62430860D02*
X72733482Y-62490384D01*
X73269196Y-63204670D02*
X73150148Y-63264193D01*
X73150148Y-63264193D02*
X72852529Y-63264193D01*
X72852529Y-63264193D02*
X72733482Y-63204670D01*
X72733482Y-63204670D02*
X72673958Y-63085622D01*
X72673958Y-63085622D02*
X72673958Y-62966574D01*
X72673958Y-62966574D02*
X72733482Y-62847527D01*
X72733482Y-62847527D02*
X72852529Y-62788003D01*
X72852529Y-62788003D02*
X73150148Y-62788003D01*
X73150148Y-62788003D02*
X73269196Y-62728479D01*
X73864434Y-63264193D02*
X73864434Y-62430860D01*
X73864434Y-62668955D02*
X73923957Y-62549908D01*
X73923957Y-62549908D02*
X73983481Y-62490384D01*
X73983481Y-62490384D02*
X74102529Y-62430860D01*
X74102529Y-62430860D02*
X74221576Y-62430860D01*
X75531101Y-63204670D02*
X75709672Y-63264193D01*
X75709672Y-63264193D02*
X76007291Y-63264193D01*
X76007291Y-63264193D02*
X76126339Y-63204670D01*
X76126339Y-63204670D02*
X76185863Y-63145146D01*
X76185863Y-63145146D02*
X76245386Y-63026098D01*
X76245386Y-63026098D02*
X76245386Y-62907050D01*
X76245386Y-62907050D02*
X76185863Y-62788003D01*
X76185863Y-62788003D02*
X76126339Y-62728479D01*
X76126339Y-62728479D02*
X76007291Y-62668955D01*
X76007291Y-62668955D02*
X75769196Y-62609431D01*
X75769196Y-62609431D02*
X75650148Y-62549908D01*
X75650148Y-62549908D02*
X75590625Y-62490384D01*
X75590625Y-62490384D02*
X75531101Y-62371336D01*
X75531101Y-62371336D02*
X75531101Y-62252289D01*
X75531101Y-62252289D02*
X75590625Y-62133241D01*
X75590625Y-62133241D02*
X75650148Y-62073717D01*
X75650148Y-62073717D02*
X75769196Y-62014193D01*
X75769196Y-62014193D02*
X76066815Y-62014193D01*
X76066815Y-62014193D02*
X76245386Y-62073717D01*
X76662053Y-62430860D02*
X76959672Y-63264193D01*
X77257291Y-62430860D02*
X76959672Y-63264193D01*
X76959672Y-63264193D02*
X76840624Y-63561812D01*
X76840624Y-63561812D02*
X76781101Y-63621336D01*
X76781101Y-63621336D02*
X76662053Y-63680860D01*
X77673958Y-63204670D02*
X77793005Y-63264193D01*
X77793005Y-63264193D02*
X78031101Y-63264193D01*
X78031101Y-63264193D02*
X78150148Y-63204670D01*
X78150148Y-63204670D02*
X78209672Y-63085622D01*
X78209672Y-63085622D02*
X78209672Y-63026098D01*
X78209672Y-63026098D02*
X78150148Y-62907050D01*
X78150148Y-62907050D02*
X78031101Y-62847527D01*
X78031101Y-62847527D02*
X77852529Y-62847527D01*
X77852529Y-62847527D02*
X77733482Y-62788003D01*
X77733482Y-62788003D02*
X77673958Y-62668955D01*
X77673958Y-62668955D02*
X77673958Y-62609431D01*
X77673958Y-62609431D02*
X77733482Y-62490384D01*
X77733482Y-62490384D02*
X77852529Y-62430860D01*
X77852529Y-62430860D02*
X78031101Y-62430860D01*
X78031101Y-62430860D02*
X78150148Y-62490384D01*
X78566815Y-62430860D02*
X79043006Y-62430860D01*
X78745387Y-62014193D02*
X78745387Y-63085622D01*
X78745387Y-63085622D02*
X78804910Y-63204670D01*
X78804910Y-63204670D02*
X78923958Y-63264193D01*
X78923958Y-63264193D02*
X79043006Y-63264193D01*
X79935863Y-63204670D02*
X79816815Y-63264193D01*
X79816815Y-63264193D02*
X79578720Y-63264193D01*
X79578720Y-63264193D02*
X79459673Y-63204670D01*
X79459673Y-63204670D02*
X79400149Y-63085622D01*
X79400149Y-63085622D02*
X79400149Y-62609431D01*
X79400149Y-62609431D02*
X79459673Y-62490384D01*
X79459673Y-62490384D02*
X79578720Y-62430860D01*
X79578720Y-62430860D02*
X79816815Y-62430860D01*
X79816815Y-62430860D02*
X79935863Y-62490384D01*
X79935863Y-62490384D02*
X79995387Y-62609431D01*
X79995387Y-62609431D02*
X79995387Y-62728479D01*
X79995387Y-62728479D02*
X79400149Y-62847527D01*
X80531102Y-63264193D02*
X80531102Y-62430860D01*
X80531102Y-62549908D02*
X80590625Y-62490384D01*
X80590625Y-62490384D02*
X80709673Y-62430860D01*
X80709673Y-62430860D02*
X80888244Y-62430860D01*
X80888244Y-62430860D02*
X81007292Y-62490384D01*
X81007292Y-62490384D02*
X81066816Y-62609431D01*
X81066816Y-62609431D02*
X81066816Y-63264193D01*
X81066816Y-62609431D02*
X81126340Y-62490384D01*
X81126340Y-62490384D02*
X81245387Y-62430860D01*
X81245387Y-62430860D02*
X81423959Y-62430860D01*
X81423959Y-62430860D02*
X81543006Y-62490384D01*
X81543006Y-62490384D02*
X81602530Y-62609431D01*
X81602530Y-62609431D02*
X81602530Y-63264193D01*
X82138245Y-63204670D02*
X82257292Y-63264193D01*
X82257292Y-63264193D02*
X82495388Y-63264193D01*
X82495388Y-63264193D02*
X82614435Y-63204670D01*
X82614435Y-63204670D02*
X82673959Y-63085622D01*
X82673959Y-63085622D02*
X82673959Y-63026098D01*
X82673959Y-63026098D02*
X82614435Y-62907050D01*
X82614435Y-62907050D02*
X82495388Y-62847527D01*
X82495388Y-62847527D02*
X82316816Y-62847527D01*
X82316816Y-62847527D02*
X82197769Y-62788003D01*
X82197769Y-62788003D02*
X82138245Y-62668955D01*
X82138245Y-62668955D02*
X82138245Y-62609431D01*
X82138245Y-62609431D02*
X82197769Y-62490384D01*
X82197769Y-62490384D02*
X82316816Y-62430860D01*
X82316816Y-62430860D02*
X82495388Y-62430860D01*
X82495388Y-62430860D02*
X82614435Y-62490384D01*
X68983482Y-65157576D02*
X68923958Y-65217100D01*
X68923958Y-65217100D02*
X68745387Y-65276623D01*
X68745387Y-65276623D02*
X68626339Y-65276623D01*
X68626339Y-65276623D02*
X68447768Y-65217100D01*
X68447768Y-65217100D02*
X68328720Y-65098052D01*
X68328720Y-65098052D02*
X68269197Y-64979004D01*
X68269197Y-64979004D02*
X68209673Y-64740909D01*
X68209673Y-64740909D02*
X68209673Y-64562338D01*
X68209673Y-64562338D02*
X68269197Y-64324242D01*
X68269197Y-64324242D02*
X68328720Y-64205195D01*
X68328720Y-64205195D02*
X68447768Y-64086147D01*
X68447768Y-64086147D02*
X68626339Y-64026623D01*
X68626339Y-64026623D02*
X68745387Y-64026623D01*
X68745387Y-64026623D02*
X68923958Y-64086147D01*
X68923958Y-64086147D02*
X68983482Y-64145671D01*
X70233482Y-65157576D02*
X70173958Y-65217100D01*
X70173958Y-65217100D02*
X69995387Y-65276623D01*
X69995387Y-65276623D02*
X69876339Y-65276623D01*
X69876339Y-65276623D02*
X69697768Y-65217100D01*
X69697768Y-65217100D02*
X69578720Y-65098052D01*
X69578720Y-65098052D02*
X69519197Y-64979004D01*
X69519197Y-64979004D02*
X69459673Y-64740909D01*
X69459673Y-64740909D02*
X69459673Y-64562338D01*
X69459673Y-64562338D02*
X69519197Y-64324242D01*
X69519197Y-64324242D02*
X69578720Y-64205195D01*
X69578720Y-64205195D02*
X69697768Y-64086147D01*
X69697768Y-64086147D02*
X69876339Y-64026623D01*
X69876339Y-64026623D02*
X69995387Y-64026623D01*
X69995387Y-64026623D02*
X70173958Y-64086147D01*
X70173958Y-64086147D02*
X70233482Y-64145671D01*
X70590625Y-64026623D02*
X71304911Y-64026623D01*
X70947768Y-65276623D02*
X70947768Y-64026623D01*
X71721578Y-64800433D02*
X72673959Y-64800433D01*
X73923958Y-65276623D02*
X73209673Y-65276623D01*
X73566816Y-65276623D02*
X73566816Y-64026623D01*
X73566816Y-64026623D02*
X73447768Y-64205195D01*
X73447768Y-64205195D02*
X73328720Y-64324242D01*
X73328720Y-64324242D02*
X73209673Y-64383766D01*
D10*
X115745789Y-138635752D02*
X114983884Y-138921466D01*
X114983884Y-138921466D02*
X115745789Y-139207180D01*
X116221979Y-138921466D02*
X116983884Y-138921466D01*
X76336265Y-146046895D02*
X76336265Y-145246895D01*
X76336265Y-145246895D02*
X76641027Y-145246895D01*
X76641027Y-145246895D02*
X76717217Y-145284990D01*
X76717217Y-145284990D02*
X76755312Y-145323085D01*
X76755312Y-145323085D02*
X76793408Y-145399276D01*
X76793408Y-145399276D02*
X76793408Y-145513561D01*
X76793408Y-145513561D02*
X76755312Y-145589752D01*
X76755312Y-145589752D02*
X76717217Y-145627847D01*
X76717217Y-145627847D02*
X76641027Y-145665942D01*
X76641027Y-145665942D02*
X76336265Y-145665942D01*
X77441027Y-146008800D02*
X77364836Y-146046895D01*
X77364836Y-146046895D02*
X77212455Y-146046895D01*
X77212455Y-146046895D02*
X77136265Y-146008800D01*
X77136265Y-146008800D02*
X77098169Y-145932609D01*
X77098169Y-145932609D02*
X77098169Y-145627847D01*
X77098169Y-145627847D02*
X77136265Y-145551657D01*
X77136265Y-145551657D02*
X77212455Y-145513561D01*
X77212455Y-145513561D02*
X77364836Y-145513561D01*
X77364836Y-145513561D02*
X77441027Y-145551657D01*
X77441027Y-145551657D02*
X77479122Y-145627847D01*
X77479122Y-145627847D02*
X77479122Y-145704038D01*
X77479122Y-145704038D02*
X77098169Y-145780228D01*
X77821979Y-146046895D02*
X77821979Y-145513561D01*
X77821979Y-145665942D02*
X77860074Y-145589752D01*
X77860074Y-145589752D02*
X77898169Y-145551657D01*
X77898169Y-145551657D02*
X77974360Y-145513561D01*
X77974360Y-145513561D02*
X78050550Y-145513561D01*
X78317217Y-146046895D02*
X78317217Y-145513561D01*
X78317217Y-145246895D02*
X78279121Y-145284990D01*
X78279121Y-145284990D02*
X78317217Y-145323085D01*
X78317217Y-145323085D02*
X78355312Y-145284990D01*
X78355312Y-145284990D02*
X78317217Y-145246895D01*
X78317217Y-145246895D02*
X78317217Y-145323085D01*
X78812454Y-146046895D02*
X78736264Y-146008800D01*
X78736264Y-146008800D02*
X78698169Y-145970704D01*
X78698169Y-145970704D02*
X78660073Y-145894514D01*
X78660073Y-145894514D02*
X78660073Y-145665942D01*
X78660073Y-145665942D02*
X78698169Y-145589752D01*
X78698169Y-145589752D02*
X78736264Y-145551657D01*
X78736264Y-145551657D02*
X78812454Y-145513561D01*
X78812454Y-145513561D02*
X78926740Y-145513561D01*
X78926740Y-145513561D02*
X79002931Y-145551657D01*
X79002931Y-145551657D02*
X79041026Y-145589752D01*
X79041026Y-145589752D02*
X79079121Y-145665942D01*
X79079121Y-145665942D02*
X79079121Y-145894514D01*
X79079121Y-145894514D02*
X79041026Y-145970704D01*
X79041026Y-145970704D02*
X79002931Y-146008800D01*
X79002931Y-146008800D02*
X78926740Y-146046895D01*
X78926740Y-146046895D02*
X78812454Y-146046895D01*
X79764836Y-146046895D02*
X79764836Y-145246895D01*
X79764836Y-146008800D02*
X79688645Y-146046895D01*
X79688645Y-146046895D02*
X79536264Y-146046895D01*
X79536264Y-146046895D02*
X79460074Y-146008800D01*
X79460074Y-146008800D02*
X79421979Y-145970704D01*
X79421979Y-145970704D02*
X79383883Y-145894514D01*
X79383883Y-145894514D02*
X79383883Y-145665942D01*
X79383883Y-145665942D02*
X79421979Y-145589752D01*
X79421979Y-145589752D02*
X79460074Y-145551657D01*
X79460074Y-145551657D02*
X79536264Y-145513561D01*
X79536264Y-145513561D02*
X79688645Y-145513561D01*
X79688645Y-145513561D02*
X79764836Y-145551657D01*
X76773408Y-134000704D02*
X76735312Y-134038800D01*
X76735312Y-134038800D02*
X76621027Y-134076895D01*
X76621027Y-134076895D02*
X76544836Y-134076895D01*
X76544836Y-134076895D02*
X76430550Y-134038800D01*
X76430550Y-134038800D02*
X76354360Y-133962609D01*
X76354360Y-133962609D02*
X76316265Y-133886419D01*
X76316265Y-133886419D02*
X76278169Y-133734038D01*
X76278169Y-133734038D02*
X76278169Y-133619752D01*
X76278169Y-133619752D02*
X76316265Y-133467371D01*
X76316265Y-133467371D02*
X76354360Y-133391180D01*
X76354360Y-133391180D02*
X76430550Y-133314990D01*
X76430550Y-133314990D02*
X76544836Y-133276895D01*
X76544836Y-133276895D02*
X76621027Y-133276895D01*
X76621027Y-133276895D02*
X76735312Y-133314990D01*
X76735312Y-133314990D02*
X76773408Y-133353085D01*
X77230550Y-134076895D02*
X77154360Y-134038800D01*
X77154360Y-134038800D02*
X77116265Y-133962609D01*
X77116265Y-133962609D02*
X77116265Y-133276895D01*
X77840075Y-134038800D02*
X77763884Y-134076895D01*
X77763884Y-134076895D02*
X77611503Y-134076895D01*
X77611503Y-134076895D02*
X77535313Y-134038800D01*
X77535313Y-134038800D02*
X77497217Y-133962609D01*
X77497217Y-133962609D02*
X77497217Y-133657847D01*
X77497217Y-133657847D02*
X77535313Y-133581657D01*
X77535313Y-133581657D02*
X77611503Y-133543561D01*
X77611503Y-133543561D02*
X77763884Y-133543561D01*
X77763884Y-133543561D02*
X77840075Y-133581657D01*
X77840075Y-133581657D02*
X77878170Y-133657847D01*
X77878170Y-133657847D02*
X77878170Y-133734038D01*
X77878170Y-133734038D02*
X77497217Y-133810228D01*
X78563884Y-134076895D02*
X78563884Y-133657847D01*
X78563884Y-133657847D02*
X78525789Y-133581657D01*
X78525789Y-133581657D02*
X78449598Y-133543561D01*
X78449598Y-133543561D02*
X78297217Y-133543561D01*
X78297217Y-133543561D02*
X78221027Y-133581657D01*
X78563884Y-134038800D02*
X78487693Y-134076895D01*
X78487693Y-134076895D02*
X78297217Y-134076895D01*
X78297217Y-134076895D02*
X78221027Y-134038800D01*
X78221027Y-134038800D02*
X78182931Y-133962609D01*
X78182931Y-133962609D02*
X78182931Y-133886419D01*
X78182931Y-133886419D02*
X78221027Y-133810228D01*
X78221027Y-133810228D02*
X78297217Y-133772133D01*
X78297217Y-133772133D02*
X78487693Y-133772133D01*
X78487693Y-133772133D02*
X78563884Y-133734038D01*
X78944837Y-134076895D02*
X78944837Y-133543561D01*
X78944837Y-133695942D02*
X78982932Y-133619752D01*
X78982932Y-133619752D02*
X79021027Y-133581657D01*
X79021027Y-133581657D02*
X79097218Y-133543561D01*
X79097218Y-133543561D02*
X79173408Y-133543561D01*
X79396265Y-126256895D02*
X79396265Y-125456895D01*
X80158169Y-126256895D02*
X79777217Y-126256895D01*
X79777217Y-126256895D02*
X79777217Y-125456895D01*
X80424836Y-126256895D02*
X80424836Y-125456895D01*
X80843883Y-126256895D02*
X80996264Y-126256895D01*
X80996264Y-126256895D02*
X81072454Y-126218800D01*
X81072454Y-126218800D02*
X81110550Y-126180704D01*
X81110550Y-126180704D02*
X81186740Y-126066419D01*
X81186740Y-126066419D02*
X81224835Y-125914038D01*
X81224835Y-125914038D02*
X81224835Y-125609276D01*
X81224835Y-125609276D02*
X81186740Y-125533085D01*
X81186740Y-125533085D02*
X81148645Y-125494990D01*
X81148645Y-125494990D02*
X81072454Y-125456895D01*
X81072454Y-125456895D02*
X80920073Y-125456895D01*
X80920073Y-125456895D02*
X80843883Y-125494990D01*
X80843883Y-125494990D02*
X80805788Y-125533085D01*
X80805788Y-125533085D02*
X80767692Y-125609276D01*
X80767692Y-125609276D02*
X80767692Y-125799752D01*
X80767692Y-125799752D02*
X80805788Y-125875942D01*
X80805788Y-125875942D02*
X80843883Y-125914038D01*
X80843883Y-125914038D02*
X80920073Y-125952133D01*
X80920073Y-125952133D02*
X81072454Y-125952133D01*
X81072454Y-125952133D02*
X81148645Y-125914038D01*
X81148645Y-125914038D02*
X81186740Y-125875942D01*
X81186740Y-125875942D02*
X81224835Y-125799752D01*
X81491502Y-125456895D02*
X81986740Y-125456895D01*
X81986740Y-125456895D02*
X81720074Y-125761657D01*
X81720074Y-125761657D02*
X81834359Y-125761657D01*
X81834359Y-125761657D02*
X81910550Y-125799752D01*
X81910550Y-125799752D02*
X81948645Y-125837847D01*
X81948645Y-125837847D02*
X81986740Y-125914038D01*
X81986740Y-125914038D02*
X81986740Y-126104514D01*
X81986740Y-126104514D02*
X81948645Y-126180704D01*
X81948645Y-126180704D02*
X81910550Y-126218800D01*
X81910550Y-126218800D02*
X81834359Y-126256895D01*
X81834359Y-126256895D02*
X81605788Y-126256895D01*
X81605788Y-126256895D02*
X81529597Y-126218800D01*
X81529597Y-126218800D02*
X81491502Y-126180704D01*
X82672455Y-125723561D02*
X82672455Y-126256895D01*
X82481979Y-125418800D02*
X82291502Y-125990228D01*
X82291502Y-125990228D02*
X82786741Y-125990228D01*
X83510550Y-126256895D02*
X83053407Y-126256895D01*
X83281979Y-126256895D02*
X83281979Y-125456895D01*
X83281979Y-125456895D02*
X83205788Y-125571180D01*
X83205788Y-125571180D02*
X83129598Y-125647371D01*
X83129598Y-125647371D02*
X83053407Y-125685466D01*
X78734211Y-139224247D02*
X79496115Y-138938533D01*
X79496115Y-138938533D02*
X78734211Y-138652819D01*
X78258020Y-138938533D02*
X77496116Y-138938533D01*
X114504211Y-99074247D02*
X115266115Y-98788533D01*
X115266115Y-98788533D02*
X114504211Y-98502819D01*
X114028020Y-98788533D02*
X113266116Y-98788533D01*
X104515752Y-51484211D02*
X104801466Y-52246115D01*
X104801466Y-52246115D02*
X105087180Y-51484211D01*
X104801466Y-51008020D02*
X104801466Y-50246116D01*
X115865789Y-150525752D02*
X115103884Y-150811466D01*
X115103884Y-150811466D02*
X115865789Y-151097180D01*
X116341979Y-150811466D02*
X117103884Y-150811466D01*
X66846265Y-93976895D02*
X66846265Y-93176895D01*
X66846265Y-93176895D02*
X67151027Y-93176895D01*
X67151027Y-93176895D02*
X67227217Y-93214990D01*
X67227217Y-93214990D02*
X67265312Y-93253085D01*
X67265312Y-93253085D02*
X67303408Y-93329276D01*
X67303408Y-93329276D02*
X67303408Y-93443561D01*
X67303408Y-93443561D02*
X67265312Y-93519752D01*
X67265312Y-93519752D02*
X67227217Y-93557847D01*
X67227217Y-93557847D02*
X67151027Y-93595942D01*
X67151027Y-93595942D02*
X66846265Y-93595942D01*
X67760550Y-93976895D02*
X67684360Y-93938800D01*
X67684360Y-93938800D02*
X67646265Y-93900704D01*
X67646265Y-93900704D02*
X67608169Y-93824514D01*
X67608169Y-93824514D02*
X67608169Y-93595942D01*
X67608169Y-93595942D02*
X67646265Y-93519752D01*
X67646265Y-93519752D02*
X67684360Y-93481657D01*
X67684360Y-93481657D02*
X67760550Y-93443561D01*
X67760550Y-93443561D02*
X67874836Y-93443561D01*
X67874836Y-93443561D02*
X67951027Y-93481657D01*
X67951027Y-93481657D02*
X67989122Y-93519752D01*
X67989122Y-93519752D02*
X68027217Y-93595942D01*
X68027217Y-93595942D02*
X68027217Y-93824514D01*
X68027217Y-93824514D02*
X67989122Y-93900704D01*
X67989122Y-93900704D02*
X67951027Y-93938800D01*
X67951027Y-93938800D02*
X67874836Y-93976895D01*
X67874836Y-93976895D02*
X67760550Y-93976895D01*
X68293884Y-93443561D02*
X68446265Y-93976895D01*
X68446265Y-93976895D02*
X68598646Y-93595942D01*
X68598646Y-93595942D02*
X68751027Y-93976895D01*
X68751027Y-93976895D02*
X68903408Y-93443561D01*
X69512932Y-93938800D02*
X69436741Y-93976895D01*
X69436741Y-93976895D02*
X69284360Y-93976895D01*
X69284360Y-93976895D02*
X69208170Y-93938800D01*
X69208170Y-93938800D02*
X69170074Y-93862609D01*
X69170074Y-93862609D02*
X69170074Y-93557847D01*
X69170074Y-93557847D02*
X69208170Y-93481657D01*
X69208170Y-93481657D02*
X69284360Y-93443561D01*
X69284360Y-93443561D02*
X69436741Y-93443561D01*
X69436741Y-93443561D02*
X69512932Y-93481657D01*
X69512932Y-93481657D02*
X69551027Y-93557847D01*
X69551027Y-93557847D02*
X69551027Y-93634038D01*
X69551027Y-93634038D02*
X69170074Y-93710228D01*
X69893884Y-93976895D02*
X69893884Y-93443561D01*
X69893884Y-93595942D02*
X69931979Y-93519752D01*
X69931979Y-93519752D02*
X69970074Y-93481657D01*
X69970074Y-93481657D02*
X70046265Y-93443561D01*
X70046265Y-93443561D02*
X70122455Y-93443561D01*
X71455789Y-93900704D02*
X71417693Y-93938800D01*
X71417693Y-93938800D02*
X71303408Y-93976895D01*
X71303408Y-93976895D02*
X71227217Y-93976895D01*
X71227217Y-93976895D02*
X71112931Y-93938800D01*
X71112931Y-93938800D02*
X71036741Y-93862609D01*
X71036741Y-93862609D02*
X70998646Y-93786419D01*
X70998646Y-93786419D02*
X70960550Y-93634038D01*
X70960550Y-93634038D02*
X70960550Y-93519752D01*
X70960550Y-93519752D02*
X70998646Y-93367371D01*
X70998646Y-93367371D02*
X71036741Y-93291180D01*
X71036741Y-93291180D02*
X71112931Y-93214990D01*
X71112931Y-93214990D02*
X71227217Y-93176895D01*
X71227217Y-93176895D02*
X71303408Y-93176895D01*
X71303408Y-93176895D02*
X71417693Y-93214990D01*
X71417693Y-93214990D02*
X71455789Y-93253085D01*
X71912931Y-93976895D02*
X71836741Y-93938800D01*
X71836741Y-93938800D02*
X71798646Y-93900704D01*
X71798646Y-93900704D02*
X71760550Y-93824514D01*
X71760550Y-93824514D02*
X71760550Y-93595942D01*
X71760550Y-93595942D02*
X71798646Y-93519752D01*
X71798646Y-93519752D02*
X71836741Y-93481657D01*
X71836741Y-93481657D02*
X71912931Y-93443561D01*
X71912931Y-93443561D02*
X72027217Y-93443561D01*
X72027217Y-93443561D02*
X72103408Y-93481657D01*
X72103408Y-93481657D02*
X72141503Y-93519752D01*
X72141503Y-93519752D02*
X72179598Y-93595942D01*
X72179598Y-93595942D02*
X72179598Y-93824514D01*
X72179598Y-93824514D02*
X72141503Y-93900704D01*
X72141503Y-93900704D02*
X72103408Y-93938800D01*
X72103408Y-93938800D02*
X72027217Y-93976895D01*
X72027217Y-93976895D02*
X71912931Y-93976895D01*
X72522456Y-93443561D02*
X72522456Y-93976895D01*
X72522456Y-93519752D02*
X72560551Y-93481657D01*
X72560551Y-93481657D02*
X72636741Y-93443561D01*
X72636741Y-93443561D02*
X72751027Y-93443561D01*
X72751027Y-93443561D02*
X72827218Y-93481657D01*
X72827218Y-93481657D02*
X72865313Y-93557847D01*
X72865313Y-93557847D02*
X72865313Y-93976895D01*
X73170075Y-93443561D02*
X73360551Y-93976895D01*
X73360551Y-93976895D02*
X73551028Y-93443561D01*
X74160552Y-93938800D02*
X74084361Y-93976895D01*
X74084361Y-93976895D02*
X73931980Y-93976895D01*
X73931980Y-93976895D02*
X73855790Y-93938800D01*
X73855790Y-93938800D02*
X73817694Y-93862609D01*
X73817694Y-93862609D02*
X73817694Y-93557847D01*
X73817694Y-93557847D02*
X73855790Y-93481657D01*
X73855790Y-93481657D02*
X73931980Y-93443561D01*
X73931980Y-93443561D02*
X74084361Y-93443561D01*
X74084361Y-93443561D02*
X74160552Y-93481657D01*
X74160552Y-93481657D02*
X74198647Y-93557847D01*
X74198647Y-93557847D02*
X74198647Y-93634038D01*
X74198647Y-93634038D02*
X73817694Y-93710228D01*
X74541504Y-93976895D02*
X74541504Y-93443561D01*
X74541504Y-93595942D02*
X74579599Y-93519752D01*
X74579599Y-93519752D02*
X74617694Y-93481657D01*
X74617694Y-93481657D02*
X74693885Y-93443561D01*
X74693885Y-93443561D02*
X74770075Y-93443561D01*
X74922456Y-93443561D02*
X75227218Y-93443561D01*
X75036742Y-93176895D02*
X75036742Y-93862609D01*
X75036742Y-93862609D02*
X75074837Y-93938800D01*
X75074837Y-93938800D02*
X75151027Y-93976895D01*
X75151027Y-93976895D02*
X75227218Y-93976895D01*
X75798647Y-93938800D02*
X75722456Y-93976895D01*
X75722456Y-93976895D02*
X75570075Y-93976895D01*
X75570075Y-93976895D02*
X75493885Y-93938800D01*
X75493885Y-93938800D02*
X75455789Y-93862609D01*
X75455789Y-93862609D02*
X75455789Y-93557847D01*
X75455789Y-93557847D02*
X75493885Y-93481657D01*
X75493885Y-93481657D02*
X75570075Y-93443561D01*
X75570075Y-93443561D02*
X75722456Y-93443561D01*
X75722456Y-93443561D02*
X75798647Y-93481657D01*
X75798647Y-93481657D02*
X75836742Y-93557847D01*
X75836742Y-93557847D02*
X75836742Y-93634038D01*
X75836742Y-93634038D02*
X75455789Y-93710228D01*
X76179599Y-93976895D02*
X76179599Y-93443561D01*
X76179599Y-93595942D02*
X76217694Y-93519752D01*
X76217694Y-93519752D02*
X76255789Y-93481657D01*
X76255789Y-93481657D02*
X76331980Y-93443561D01*
X76331980Y-93443561D02*
X76408170Y-93443561D01*
X115288169Y-145958800D02*
X115402455Y-145996895D01*
X115402455Y-145996895D02*
X115592931Y-145996895D01*
X115592931Y-145996895D02*
X115669122Y-145958800D01*
X115669122Y-145958800D02*
X115707217Y-145920704D01*
X115707217Y-145920704D02*
X115745312Y-145844514D01*
X115745312Y-145844514D02*
X115745312Y-145768323D01*
X115745312Y-145768323D02*
X115707217Y-145692133D01*
X115707217Y-145692133D02*
X115669122Y-145654038D01*
X115669122Y-145654038D02*
X115592931Y-145615942D01*
X115592931Y-145615942D02*
X115440550Y-145577847D01*
X115440550Y-145577847D02*
X115364360Y-145539752D01*
X115364360Y-145539752D02*
X115326265Y-145501657D01*
X115326265Y-145501657D02*
X115288169Y-145425466D01*
X115288169Y-145425466D02*
X115288169Y-145349276D01*
X115288169Y-145349276D02*
X115326265Y-145273085D01*
X115326265Y-145273085D02*
X115364360Y-145234990D01*
X115364360Y-145234990D02*
X115440550Y-145196895D01*
X115440550Y-145196895D02*
X115631027Y-145196895D01*
X115631027Y-145196895D02*
X115745312Y-145234990D01*
X116088170Y-145463561D02*
X116088170Y-146263561D01*
X116088170Y-145501657D02*
X116164360Y-145463561D01*
X116164360Y-145463561D02*
X116316741Y-145463561D01*
X116316741Y-145463561D02*
X116392932Y-145501657D01*
X116392932Y-145501657D02*
X116431027Y-145539752D01*
X116431027Y-145539752D02*
X116469122Y-145615942D01*
X116469122Y-145615942D02*
X116469122Y-145844514D01*
X116469122Y-145844514D02*
X116431027Y-145920704D01*
X116431027Y-145920704D02*
X116392932Y-145958800D01*
X116392932Y-145958800D02*
X116316741Y-145996895D01*
X116316741Y-145996895D02*
X116164360Y-145996895D01*
X116164360Y-145996895D02*
X116088170Y-145958800D01*
X117154837Y-145996895D02*
X117154837Y-145577847D01*
X117154837Y-145577847D02*
X117116742Y-145501657D01*
X117116742Y-145501657D02*
X117040551Y-145463561D01*
X117040551Y-145463561D02*
X116888170Y-145463561D01*
X116888170Y-145463561D02*
X116811980Y-145501657D01*
X117154837Y-145958800D02*
X117078646Y-145996895D01*
X117078646Y-145996895D02*
X116888170Y-145996895D01*
X116888170Y-145996895D02*
X116811980Y-145958800D01*
X116811980Y-145958800D02*
X116773884Y-145882609D01*
X116773884Y-145882609D02*
X116773884Y-145806419D01*
X116773884Y-145806419D02*
X116811980Y-145730228D01*
X116811980Y-145730228D02*
X116888170Y-145692133D01*
X116888170Y-145692133D02*
X117078646Y-145692133D01*
X117078646Y-145692133D02*
X117154837Y-145654038D01*
X117878647Y-145958800D02*
X117802456Y-145996895D01*
X117802456Y-145996895D02*
X117650075Y-145996895D01*
X117650075Y-145996895D02*
X117573885Y-145958800D01*
X117573885Y-145958800D02*
X117535790Y-145920704D01*
X117535790Y-145920704D02*
X117497694Y-145844514D01*
X117497694Y-145844514D02*
X117497694Y-145615942D01*
X117497694Y-145615942D02*
X117535790Y-145539752D01*
X117535790Y-145539752D02*
X117573885Y-145501657D01*
X117573885Y-145501657D02*
X117650075Y-145463561D01*
X117650075Y-145463561D02*
X117802456Y-145463561D01*
X117802456Y-145463561D02*
X117878647Y-145501657D01*
X118526266Y-145958800D02*
X118450075Y-145996895D01*
X118450075Y-145996895D02*
X118297694Y-145996895D01*
X118297694Y-145996895D02*
X118221504Y-145958800D01*
X118221504Y-145958800D02*
X118183408Y-145882609D01*
X118183408Y-145882609D02*
X118183408Y-145577847D01*
X118183408Y-145577847D02*
X118221504Y-145501657D01*
X118221504Y-145501657D02*
X118297694Y-145463561D01*
X118297694Y-145463561D02*
X118450075Y-145463561D01*
X118450075Y-145463561D02*
X118526266Y-145501657D01*
X118526266Y-145501657D02*
X118564361Y-145577847D01*
X118564361Y-145577847D02*
X118564361Y-145654038D01*
X118564361Y-145654038D02*
X118183408Y-145730228D01*
X78794211Y-151164247D02*
X79556115Y-150878533D01*
X79556115Y-150878533D02*
X78794211Y-150592819D01*
X78318020Y-150878533D02*
X77556116Y-150878533D01*
X113591979Y-92266895D02*
X114049122Y-92266895D01*
X113820550Y-93066895D02*
X113820550Y-92266895D01*
X114658646Y-93066895D02*
X114658646Y-92647847D01*
X114658646Y-92647847D02*
X114620551Y-92571657D01*
X114620551Y-92571657D02*
X114544360Y-92533561D01*
X114544360Y-92533561D02*
X114391979Y-92533561D01*
X114391979Y-92533561D02*
X114315789Y-92571657D01*
X114658646Y-93028800D02*
X114582455Y-93066895D01*
X114582455Y-93066895D02*
X114391979Y-93066895D01*
X114391979Y-93066895D02*
X114315789Y-93028800D01*
X114315789Y-93028800D02*
X114277693Y-92952609D01*
X114277693Y-92952609D02*
X114277693Y-92876419D01*
X114277693Y-92876419D02*
X114315789Y-92800228D01*
X114315789Y-92800228D02*
X114391979Y-92762133D01*
X114391979Y-92762133D02*
X114582455Y-92762133D01*
X114582455Y-92762133D02*
X114658646Y-92724038D01*
X115039599Y-92533561D02*
X115039599Y-93333561D01*
X115039599Y-92571657D02*
X115115789Y-92533561D01*
X115115789Y-92533561D02*
X115268170Y-92533561D01*
X115268170Y-92533561D02*
X115344361Y-92571657D01*
X115344361Y-92571657D02*
X115382456Y-92609752D01*
X115382456Y-92609752D02*
X115420551Y-92685942D01*
X115420551Y-92685942D02*
X115420551Y-92914514D01*
X115420551Y-92914514D02*
X115382456Y-92990704D01*
X115382456Y-92990704D02*
X115344361Y-93028800D01*
X115344361Y-93028800D02*
X115268170Y-93066895D01*
X115268170Y-93066895D02*
X115115789Y-93066895D01*
X115115789Y-93066895D02*
X115039599Y-93028800D01*
X113923408Y-69220704D02*
X113885312Y-69258800D01*
X113885312Y-69258800D02*
X113771027Y-69296895D01*
X113771027Y-69296895D02*
X113694836Y-69296895D01*
X113694836Y-69296895D02*
X113580550Y-69258800D01*
X113580550Y-69258800D02*
X113504360Y-69182609D01*
X113504360Y-69182609D02*
X113466265Y-69106419D01*
X113466265Y-69106419D02*
X113428169Y-68954038D01*
X113428169Y-68954038D02*
X113428169Y-68839752D01*
X113428169Y-68839752D02*
X113466265Y-68687371D01*
X113466265Y-68687371D02*
X113504360Y-68611180D01*
X113504360Y-68611180D02*
X113580550Y-68534990D01*
X113580550Y-68534990D02*
X113694836Y-68496895D01*
X113694836Y-68496895D02*
X113771027Y-68496895D01*
X113771027Y-68496895D02*
X113885312Y-68534990D01*
X113885312Y-68534990D02*
X113923408Y-68573085D01*
X114380550Y-69296895D02*
X114304360Y-69258800D01*
X114304360Y-69258800D02*
X114266265Y-69182609D01*
X114266265Y-69182609D02*
X114266265Y-68496895D01*
X114685313Y-69296895D02*
X114685313Y-68763561D01*
X114685313Y-68496895D02*
X114647217Y-68534990D01*
X114647217Y-68534990D02*
X114685313Y-68573085D01*
X114685313Y-68573085D02*
X114723408Y-68534990D01*
X114723408Y-68534990D02*
X114685313Y-68496895D01*
X114685313Y-68496895D02*
X114685313Y-68573085D01*
X115409122Y-69258800D02*
X115332931Y-69296895D01*
X115332931Y-69296895D02*
X115180550Y-69296895D01*
X115180550Y-69296895D02*
X115104360Y-69258800D01*
X115104360Y-69258800D02*
X115066265Y-69220704D01*
X115066265Y-69220704D02*
X115028169Y-69144514D01*
X115028169Y-69144514D02*
X115028169Y-68915942D01*
X115028169Y-68915942D02*
X115066265Y-68839752D01*
X115066265Y-68839752D02*
X115104360Y-68801657D01*
X115104360Y-68801657D02*
X115180550Y-68763561D01*
X115180550Y-68763561D02*
X115332931Y-68763561D01*
X115332931Y-68763561D02*
X115409122Y-68801657D01*
X115751979Y-69296895D02*
X115751979Y-68496895D01*
X115828169Y-68992133D02*
X116056741Y-69296895D01*
X116056741Y-68763561D02*
X115751979Y-69068323D01*
X114684211Y-74954247D02*
X115446115Y-74668533D01*
X115446115Y-74668533D02*
X114684211Y-74382819D01*
X114208020Y-74668533D02*
X113446116Y-74668533D01*
X67235789Y-100095752D02*
X66473884Y-100381466D01*
X66473884Y-100381466D02*
X67235789Y-100667180D01*
X67711979Y-100381466D02*
X68473884Y-100381466D01*
D12*
%TO.C,J33*%
X113845000Y-90330000D02*
X113845000Y-89000000D01*
X114955000Y-90330000D02*
X113845000Y-90330000D01*
X116415000Y-88640000D02*
X116065000Y-88640000D01*
X116415000Y-89360000D02*
X116065000Y-89360000D01*
X116415000Y-90330000D02*
X116415000Y-87670000D01*
X125045000Y-87670000D02*
X116415000Y-87670000D01*
X125045000Y-87785445D02*
X116415000Y-87785445D01*
X125045000Y-87900900D02*
X116415000Y-87900900D01*
X125045000Y-88016355D02*
X116415000Y-88016355D01*
X125045000Y-88131810D02*
X116415000Y-88131810D01*
X125045000Y-88247265D02*
X116415000Y-88247265D01*
X125045000Y-88362720D02*
X116415000Y-88362720D01*
X125045000Y-88478175D02*
X116415000Y-88478175D01*
X125045000Y-88593630D02*
X116415000Y-88593630D01*
X125045000Y-88709085D02*
X116415000Y-88709085D01*
X125045000Y-88824540D02*
X116415000Y-88824540D01*
X125045000Y-88939995D02*
X116415000Y-88939995D01*
X125045000Y-89055450D02*
X116415000Y-89055450D01*
X125045000Y-89170905D02*
X116415000Y-89170905D01*
X125045000Y-89286360D02*
X116415000Y-89286360D01*
X125045000Y-89401815D02*
X116415000Y-89401815D01*
X125045000Y-89517270D02*
X116415000Y-89517270D01*
X125045000Y-89632725D02*
X116415000Y-89632725D01*
X125045000Y-89748180D02*
X116415000Y-89748180D01*
X125045000Y-89863635D02*
X116415000Y-89863635D01*
X125045000Y-89979090D02*
X116415000Y-89979090D01*
X125045000Y-90094545D02*
X116415000Y-90094545D01*
X125045000Y-90210000D02*
X116415000Y-90210000D01*
X125045000Y-90330000D02*
X116415000Y-90330000D01*
X125045000Y-90330000D02*
X125045000Y-87670000D01*
%TO.C,J1*%
X91670000Y-64270000D02*
X91670000Y-112590000D01*
X91670000Y-64270000D02*
X94330000Y-64270000D01*
X91670000Y-112590000D02*
X94330000Y-112590000D01*
X93000000Y-61670000D02*
X94330000Y-61670000D01*
X94330000Y-61670000D02*
X94330000Y-63000000D01*
X94330000Y-64270000D02*
X94330000Y-112590000D01*
%TO.C,J5*%
X107510000Y-134555000D02*
X107510000Y-152395000D01*
X107510000Y-134555000D02*
X110170000Y-134555000D01*
X107510000Y-152395000D02*
X110170000Y-152395000D01*
X108840000Y-131955000D02*
X110170000Y-131955000D01*
X110170000Y-131955000D02*
X110170000Y-133285000D01*
X110170000Y-134555000D02*
X110170000Y-152395000D01*
%TO.C,J18*%
X102625000Y-137495000D02*
X102625000Y-137615000D01*
X102625000Y-137615000D02*
X105285000Y-137615000D01*
X103955000Y-134955000D02*
X105285000Y-134955000D01*
X105285000Y-134955000D02*
X105285000Y-136285000D01*
X105285000Y-137495000D02*
X105285000Y-137615000D01*
%TO.C,J21*%
X115625000Y-154495000D02*
X115625000Y-154615000D01*
X115625000Y-154615000D02*
X118285000Y-154615000D01*
X116955000Y-151955000D02*
X118285000Y-151955000D01*
X118285000Y-151955000D02*
X118285000Y-153285000D01*
X118285000Y-154495000D02*
X118285000Y-154615000D01*
%TO.C,J19*%
X102625000Y-142495000D02*
X102625000Y-142615000D01*
X102625000Y-142615000D02*
X105285000Y-142615000D01*
X103955000Y-139955000D02*
X105285000Y-139955000D01*
X105285000Y-139955000D02*
X105285000Y-141285000D01*
X105285000Y-142495000D02*
X105285000Y-142615000D01*
%TO.C,J20*%
X115625000Y-149495000D02*
X115625000Y-149615000D01*
X115625000Y-149615000D02*
X118285000Y-149615000D01*
X116955000Y-146955000D02*
X118285000Y-146955000D01*
X118285000Y-146955000D02*
X118285000Y-148285000D01*
X118285000Y-149495000D02*
X118285000Y-149615000D01*
%TO.C,J40*%
X113845000Y-97330000D02*
X113845000Y-96000000D01*
X114955000Y-97330000D02*
X113845000Y-97330000D01*
X116415000Y-95640000D02*
X116065000Y-95640000D01*
X116415000Y-96360000D02*
X116065000Y-96360000D01*
X116415000Y-97330000D02*
X116415000Y-94670000D01*
X125045000Y-94670000D02*
X116415000Y-94670000D01*
X125045000Y-94785445D02*
X116415000Y-94785445D01*
X125045000Y-94900900D02*
X116415000Y-94900900D01*
X125045000Y-95016355D02*
X116415000Y-95016355D01*
X125045000Y-95131810D02*
X116415000Y-95131810D01*
X125045000Y-95247265D02*
X116415000Y-95247265D01*
X125045000Y-95362720D02*
X116415000Y-95362720D01*
X125045000Y-95478175D02*
X116415000Y-95478175D01*
X125045000Y-95593630D02*
X116415000Y-95593630D01*
X125045000Y-95709085D02*
X116415000Y-95709085D01*
X125045000Y-95824540D02*
X116415000Y-95824540D01*
X125045000Y-95939995D02*
X116415000Y-95939995D01*
X125045000Y-96055450D02*
X116415000Y-96055450D01*
X125045000Y-96170905D02*
X116415000Y-96170905D01*
X125045000Y-96286360D02*
X116415000Y-96286360D01*
X125045000Y-96401815D02*
X116415000Y-96401815D01*
X125045000Y-96517270D02*
X116415000Y-96517270D01*
X125045000Y-96632725D02*
X116415000Y-96632725D01*
X125045000Y-96748180D02*
X116415000Y-96748180D01*
X125045000Y-96863635D02*
X116415000Y-96863635D01*
X125045000Y-96979090D02*
X116415000Y-96979090D01*
X125045000Y-97094545D02*
X116415000Y-97094545D01*
X125045000Y-97210000D02*
X116415000Y-97210000D01*
X125045000Y-97330000D02*
X116415000Y-97330000D01*
X125045000Y-97330000D02*
X125045000Y-94670000D01*
%TO.C,J15*%
X89605000Y-142495000D02*
X89605000Y-142615000D01*
X89605000Y-142615000D02*
X92265000Y-142615000D01*
X90935000Y-139955000D02*
X92265000Y-139955000D01*
X92265000Y-139955000D02*
X92265000Y-141285000D01*
X92265000Y-142495000D02*
X92265000Y-142615000D01*
%TO.C,J37*%
X113845000Y-78330000D02*
X113845000Y-77000000D01*
X114955000Y-78330000D02*
X113845000Y-78330000D01*
X116415000Y-76640000D02*
X116065000Y-76640000D01*
X116415000Y-77360000D02*
X116065000Y-77360000D01*
X116415000Y-78330000D02*
X116415000Y-75670000D01*
X125045000Y-75670000D02*
X116415000Y-75670000D01*
X125045000Y-75785445D02*
X116415000Y-75785445D01*
X125045000Y-75900900D02*
X116415000Y-75900900D01*
X125045000Y-76016355D02*
X116415000Y-76016355D01*
X125045000Y-76131810D02*
X116415000Y-76131810D01*
X125045000Y-76247265D02*
X116415000Y-76247265D01*
X125045000Y-76362720D02*
X116415000Y-76362720D01*
X125045000Y-76478175D02*
X116415000Y-76478175D01*
X125045000Y-76593630D02*
X116415000Y-76593630D01*
X125045000Y-76709085D02*
X116415000Y-76709085D01*
X125045000Y-76824540D02*
X116415000Y-76824540D01*
X125045000Y-76939995D02*
X116415000Y-76939995D01*
X125045000Y-77055450D02*
X116415000Y-77055450D01*
X125045000Y-77170905D02*
X116415000Y-77170905D01*
X125045000Y-77286360D02*
X116415000Y-77286360D01*
X125045000Y-77401815D02*
X116415000Y-77401815D01*
X125045000Y-77517270D02*
X116415000Y-77517270D01*
X125045000Y-77632725D02*
X116415000Y-77632725D01*
X125045000Y-77748180D02*
X116415000Y-77748180D01*
X125045000Y-77863635D02*
X116415000Y-77863635D01*
X125045000Y-77979090D02*
X116415000Y-77979090D01*
X125045000Y-78094545D02*
X116415000Y-78094545D01*
X125045000Y-78210000D02*
X116415000Y-78210000D01*
X125045000Y-78330000D02*
X116415000Y-78330000D01*
X125045000Y-78330000D02*
X125045000Y-75670000D01*
%TO.C,J25*%
X76605000Y-154495000D02*
X76605000Y-154615000D01*
X76605000Y-154615000D02*
X79265000Y-154615000D01*
X77935000Y-151955000D02*
X79265000Y-151955000D01*
X79265000Y-151955000D02*
X79265000Y-153285000D01*
X79265000Y-154495000D02*
X79265000Y-154615000D01*
%TO.C,J32*%
X113845000Y-85330000D02*
X113845000Y-84000000D01*
X114955000Y-85330000D02*
X113845000Y-85330000D01*
X116415000Y-83640000D02*
X116065000Y-83640000D01*
X116415000Y-84360000D02*
X116065000Y-84360000D01*
X116415000Y-85330000D02*
X116415000Y-82670000D01*
X125045000Y-82670000D02*
X116415000Y-82670000D01*
X125045000Y-82785445D02*
X116415000Y-82785445D01*
X125045000Y-82900900D02*
X116415000Y-82900900D01*
X125045000Y-83016355D02*
X116415000Y-83016355D01*
X125045000Y-83131810D02*
X116415000Y-83131810D01*
X125045000Y-83247265D02*
X116415000Y-83247265D01*
X125045000Y-83362720D02*
X116415000Y-83362720D01*
X125045000Y-83478175D02*
X116415000Y-83478175D01*
X125045000Y-83593630D02*
X116415000Y-83593630D01*
X125045000Y-83709085D02*
X116415000Y-83709085D01*
X125045000Y-83824540D02*
X116415000Y-83824540D01*
X125045000Y-83939995D02*
X116415000Y-83939995D01*
X125045000Y-84055450D02*
X116415000Y-84055450D01*
X125045000Y-84170905D02*
X116415000Y-84170905D01*
X125045000Y-84286360D02*
X116415000Y-84286360D01*
X125045000Y-84401815D02*
X116415000Y-84401815D01*
X125045000Y-84517270D02*
X116415000Y-84517270D01*
X125045000Y-84632725D02*
X116415000Y-84632725D01*
X125045000Y-84748180D02*
X116415000Y-84748180D01*
X125045000Y-84863635D02*
X116415000Y-84863635D01*
X125045000Y-84979090D02*
X116415000Y-84979090D01*
X125045000Y-85094545D02*
X116415000Y-85094545D01*
X125045000Y-85210000D02*
X116415000Y-85210000D01*
X125045000Y-85330000D02*
X116415000Y-85330000D01*
X125045000Y-85330000D02*
X125045000Y-82670000D01*
%TO.C,J2*%
X105920000Y-64270000D02*
X105920000Y-112590000D01*
X105920000Y-64270000D02*
X108580000Y-64270000D01*
X105920000Y-112590000D02*
X108580000Y-112590000D01*
X107250000Y-61670000D02*
X108580000Y-61670000D01*
X108580000Y-61670000D02*
X108580000Y-63000000D01*
X108580000Y-64270000D02*
X108580000Y-112590000D01*
%TO.C,J13*%
X76605000Y-142495000D02*
X76605000Y-142615000D01*
X76605000Y-142615000D02*
X79265000Y-142615000D01*
X77935000Y-139955000D02*
X79265000Y-139955000D01*
X79265000Y-139955000D02*
X79265000Y-141285000D01*
X79265000Y-142495000D02*
X79265000Y-142615000D01*
%TO.C,J9*%
X86330000Y-104710000D02*
X86330000Y-104830000D01*
X86330000Y-104830000D02*
X88990000Y-104830000D01*
X87660000Y-102170000D02*
X88990000Y-102170000D01*
X88990000Y-102170000D02*
X88990000Y-103500000D01*
X88990000Y-104710000D02*
X88990000Y-104830000D01*
%TO.C,J10*%
X86330000Y-110750000D02*
X86330000Y-110870000D01*
X86330000Y-110870000D02*
X88990000Y-110870000D01*
X87660000Y-108210000D02*
X88990000Y-108210000D01*
X88990000Y-108210000D02*
X88990000Y-109540000D01*
X88990000Y-110750000D02*
X88990000Y-110870000D01*
%TO.C,J4*%
X84650000Y-134555000D02*
X84650000Y-152395000D01*
X84650000Y-134555000D02*
X87310000Y-134555000D01*
X84650000Y-152395000D02*
X87310000Y-152395000D01*
X85980000Y-131955000D02*
X87310000Y-131955000D01*
X87310000Y-131955000D02*
X87310000Y-133285000D01*
X87310000Y-134555000D02*
X87310000Y-152395000D01*
%TO.C,J8*%
X72580000Y-99210000D02*
X72580000Y-99330000D01*
X72580000Y-99330000D02*
X75240000Y-99330000D01*
X73910000Y-96670000D02*
X75240000Y-96670000D01*
X75240000Y-96670000D02*
X75240000Y-98000000D01*
X75240000Y-99210000D02*
X75240000Y-99330000D01*
%TO.C,J17*%
X115625000Y-142495000D02*
X115625000Y-142615000D01*
X115625000Y-142615000D02*
X118285000Y-142615000D01*
X116955000Y-139955000D02*
X118285000Y-139955000D01*
X118285000Y-139955000D02*
X118285000Y-141285000D01*
X118285000Y-142495000D02*
X118285000Y-142615000D01*
%TO.C,J41*%
X113845000Y-102330000D02*
X113845000Y-101000000D01*
X114955000Y-102330000D02*
X113845000Y-102330000D01*
X116415000Y-100640000D02*
X116065000Y-100640000D01*
X116415000Y-101360000D02*
X116065000Y-101360000D01*
X116415000Y-102330000D02*
X116415000Y-99670000D01*
X125045000Y-99670000D02*
X116415000Y-99670000D01*
X125045000Y-99785445D02*
X116415000Y-99785445D01*
X125045000Y-99900900D02*
X116415000Y-99900900D01*
X125045000Y-100016355D02*
X116415000Y-100016355D01*
X125045000Y-100131810D02*
X116415000Y-100131810D01*
X125045000Y-100247265D02*
X116415000Y-100247265D01*
X125045000Y-100362720D02*
X116415000Y-100362720D01*
X125045000Y-100478175D02*
X116415000Y-100478175D01*
X125045000Y-100593630D02*
X116415000Y-100593630D01*
X125045000Y-100709085D02*
X116415000Y-100709085D01*
X125045000Y-100824540D02*
X116415000Y-100824540D01*
X125045000Y-100939995D02*
X116415000Y-100939995D01*
X125045000Y-101055450D02*
X116415000Y-101055450D01*
X125045000Y-101170905D02*
X116415000Y-101170905D01*
X125045000Y-101286360D02*
X116415000Y-101286360D01*
X125045000Y-101401815D02*
X116415000Y-101401815D01*
X125045000Y-101517270D02*
X116415000Y-101517270D01*
X125045000Y-101632725D02*
X116415000Y-101632725D01*
X125045000Y-101748180D02*
X116415000Y-101748180D01*
X125045000Y-101863635D02*
X116415000Y-101863635D01*
X125045000Y-101979090D02*
X116415000Y-101979090D01*
X125045000Y-102094545D02*
X116415000Y-102094545D01*
X125045000Y-102210000D02*
X116415000Y-102210000D01*
X125045000Y-102330000D02*
X116415000Y-102330000D01*
X125045000Y-102330000D02*
X125045000Y-99670000D01*
%TO.C,J23*%
X102625000Y-154495000D02*
X102625000Y-154615000D01*
X102625000Y-154615000D02*
X105285000Y-154615000D01*
X103955000Y-151955000D02*
X105285000Y-151955000D01*
X105285000Y-151955000D02*
X105285000Y-153285000D01*
X105285000Y-154495000D02*
X105285000Y-154615000D01*
%TO.C,J6*%
X89720000Y-46390000D02*
X89720000Y-49050000D01*
X102480000Y-46390000D02*
X89720000Y-46390000D01*
X102480000Y-46390000D02*
X102480000Y-49050000D01*
X102480000Y-49050000D02*
X89720000Y-49050000D01*
X105080000Y-47720000D02*
X105080000Y-49050000D01*
X105080000Y-49050000D02*
X103750000Y-49050000D01*
%TO.C,J12*%
X76605000Y-137495000D02*
X76605000Y-137615000D01*
X76605000Y-137615000D02*
X79265000Y-137615000D01*
X77935000Y-134955000D02*
X79265000Y-134955000D01*
X79265000Y-134955000D02*
X79265000Y-136285000D01*
X79265000Y-137495000D02*
X79265000Y-137615000D01*
%TO.C,J7*%
X66905000Y-99210000D02*
X66905000Y-99330000D01*
X66905000Y-99330000D02*
X69565000Y-99330000D01*
X68235000Y-96670000D02*
X69565000Y-96670000D01*
X69565000Y-96670000D02*
X69565000Y-98000000D01*
X69565000Y-99210000D02*
X69565000Y-99330000D01*
%TO.C,J24*%
X76605000Y-149495000D02*
X76605000Y-149615000D01*
X76605000Y-149615000D02*
X79265000Y-149615000D01*
X77935000Y-146955000D02*
X79265000Y-146955000D01*
X79265000Y-146955000D02*
X79265000Y-148285000D01*
X79265000Y-149495000D02*
X79265000Y-149615000D01*
%TO.C,J22*%
X102625000Y-149495000D02*
X102625000Y-149615000D01*
X102625000Y-149615000D02*
X105285000Y-149615000D01*
X103955000Y-146955000D02*
X105285000Y-146955000D01*
X105285000Y-146955000D02*
X105285000Y-148285000D01*
X105285000Y-149495000D02*
X105285000Y-149615000D01*
%TO.C,J3*%
X79580000Y-126930000D02*
X80910000Y-126930000D01*
X79580000Y-128260000D02*
X79580000Y-126930000D01*
X82180000Y-126930000D02*
X115260000Y-126930000D01*
X82180000Y-129590000D02*
X82180000Y-126930000D01*
X82180000Y-129590000D02*
X115260000Y-129590000D01*
X115260000Y-129590000D02*
X115260000Y-126930000D01*
%TO.C,J26*%
X89605000Y-149495000D02*
X89605000Y-149615000D01*
X89605000Y-149615000D02*
X92265000Y-149615000D01*
X90935000Y-146955000D02*
X92265000Y-146955000D01*
X92265000Y-146955000D02*
X92265000Y-148285000D01*
X92265000Y-149495000D02*
X92265000Y-149615000D01*
%TO.C,J14*%
X89605000Y-137495000D02*
X89605000Y-137615000D01*
X89605000Y-137615000D02*
X92265000Y-137615000D01*
X90935000Y-134955000D02*
X92265000Y-134955000D01*
X92265000Y-134955000D02*
X92265000Y-136285000D01*
X92265000Y-137495000D02*
X92265000Y-137615000D01*
%TO.C,J27*%
X89605000Y-154495000D02*
X89605000Y-154615000D01*
X89605000Y-154615000D02*
X92265000Y-154615000D01*
X90935000Y-151955000D02*
X92265000Y-151955000D01*
X92265000Y-151955000D02*
X92265000Y-153285000D01*
X92265000Y-154495000D02*
X92265000Y-154615000D01*
%TO.C,J36*%
X113845000Y-73330000D02*
X113845000Y-72000000D01*
X114955000Y-73330000D02*
X113845000Y-73330000D01*
X116415000Y-71640000D02*
X116065000Y-71640000D01*
X116415000Y-72360000D02*
X116065000Y-72360000D01*
X116415000Y-73330000D02*
X116415000Y-70670000D01*
X125045000Y-70670000D02*
X116415000Y-70670000D01*
X125045000Y-70785445D02*
X116415000Y-70785445D01*
X125045000Y-70900900D02*
X116415000Y-70900900D01*
X125045000Y-71016355D02*
X116415000Y-71016355D01*
X125045000Y-71131810D02*
X116415000Y-71131810D01*
X125045000Y-71247265D02*
X116415000Y-71247265D01*
X125045000Y-71362720D02*
X116415000Y-71362720D01*
X125045000Y-71478175D02*
X116415000Y-71478175D01*
X125045000Y-71593630D02*
X116415000Y-71593630D01*
X125045000Y-71709085D02*
X116415000Y-71709085D01*
X125045000Y-71824540D02*
X116415000Y-71824540D01*
X125045000Y-71939995D02*
X116415000Y-71939995D01*
X125045000Y-72055450D02*
X116415000Y-72055450D01*
X125045000Y-72170905D02*
X116415000Y-72170905D01*
X125045000Y-72286360D02*
X116415000Y-72286360D01*
X125045000Y-72401815D02*
X116415000Y-72401815D01*
X125045000Y-72517270D02*
X116415000Y-72517270D01*
X125045000Y-72632725D02*
X116415000Y-72632725D01*
X125045000Y-72748180D02*
X116415000Y-72748180D01*
X125045000Y-72863635D02*
X116415000Y-72863635D01*
X125045000Y-72979090D02*
X116415000Y-72979090D01*
X125045000Y-73094545D02*
X116415000Y-73094545D01*
X125045000Y-73210000D02*
X116415000Y-73210000D01*
X125045000Y-73330000D02*
X116415000Y-73330000D01*
X125045000Y-73330000D02*
X125045000Y-70670000D01*
%TO.C,J16*%
X115625000Y-137495000D02*
X115625000Y-137615000D01*
X115625000Y-137615000D02*
X118285000Y-137615000D01*
X116955000Y-134955000D02*
X118285000Y-134955000D01*
X118285000Y-134955000D02*
X118285000Y-136285000D01*
X118285000Y-137495000D02*
X118285000Y-137615000D01*
%TD*%
M02*
