%TF.GenerationSoftware,KiCad,Pcbnew,8.0.4*%
%TF.CreationDate,2026-08-08T14:02:05-05:00*%
%TF.ProjectId,code of claw translator,636f6465-206f-4662-9063-6c6177207472,rev?*%
%TF.SameCoordinates,Original*%
%TF.FileFunction,Legend,Bot*%
%TF.FilePolarity,Positive*%
%FSLAX46Y46*%
G04 Gerber Fmt 4.6, Leading zero omitted, Abs format (unit mm)*
G04 Created by KiCad (PCBNEW 8.0.4) date 2026-08-08 14:02:05*
%MOMM*%
%LPD*%
G01*
G04 APERTURE LIST*
%ADD10C,0.100000*%
G04 APERTURE END LIST*
D10*
X89763734Y-131156895D02*
X89763734Y-130356895D01*
X89763734Y-130356895D02*
X89497068Y-130928323D01*
X89497068Y-130928323D02*
X89230401Y-130356895D01*
X89230401Y-130356895D02*
X89230401Y-131156895D01*
X88963734Y-130356895D02*
X88506591Y-130356895D01*
X88735163Y-131156895D02*
X88735163Y-130356895D01*
X87782781Y-131080704D02*
X87820877Y-131118800D01*
X87820877Y-131118800D02*
X87935162Y-131156895D01*
X87935162Y-131156895D02*
X88011353Y-131156895D01*
X88011353Y-131156895D02*
X88125639Y-131118800D01*
X88125639Y-131118800D02*
X88201829Y-131042609D01*
X88201829Y-131042609D02*
X88239924Y-130966419D01*
X88239924Y-130966419D02*
X88278020Y-130814038D01*
X88278020Y-130814038D02*
X88278020Y-130699752D01*
X88278020Y-130699752D02*
X88239924Y-130547371D01*
X88239924Y-130547371D02*
X88201829Y-130471180D01*
X88201829Y-130471180D02*
X88125639Y-130394990D01*
X88125639Y-130394990D02*
X88011353Y-130356895D01*
X88011353Y-130356895D02*
X87935162Y-130356895D01*
X87935162Y-130356895D02*
X87820877Y-130394990D01*
X87820877Y-130394990D02*
X87782781Y-130433085D01*
X87439924Y-131156895D02*
X87439924Y-130356895D01*
X87439924Y-130737847D02*
X86982781Y-130737847D01*
X86982781Y-131156895D02*
X86982781Y-130356895D01*
X86258972Y-130356895D02*
X86411353Y-130356895D01*
X86411353Y-130356895D02*
X86487544Y-130394990D01*
X86487544Y-130394990D02*
X86525639Y-130433085D01*
X86525639Y-130433085D02*
X86601829Y-130547371D01*
X86601829Y-130547371D02*
X86639925Y-130699752D01*
X86639925Y-130699752D02*
X86639925Y-131004514D01*
X86639925Y-131004514D02*
X86601829Y-131080704D01*
X86601829Y-131080704D02*
X86563734Y-131118800D01*
X86563734Y-131118800D02*
X86487544Y-131156895D01*
X86487544Y-131156895D02*
X86335163Y-131156895D01*
X86335163Y-131156895D02*
X86258972Y-131118800D01*
X86258972Y-131118800D02*
X86220877Y-131080704D01*
X86220877Y-131080704D02*
X86182782Y-131004514D01*
X86182782Y-131004514D02*
X86182782Y-130814038D01*
X86182782Y-130814038D02*
X86220877Y-130737847D01*
X86220877Y-130737847D02*
X86258972Y-130699752D01*
X86258972Y-130699752D02*
X86335163Y-130661657D01*
X86335163Y-130661657D02*
X86487544Y-130661657D01*
X86487544Y-130661657D02*
X86563734Y-130699752D01*
X86563734Y-130699752D02*
X86601829Y-130737847D01*
X86601829Y-130737847D02*
X86639925Y-130814038D01*
X85420877Y-131156895D02*
X85878020Y-131156895D01*
X85649448Y-131156895D02*
X85649448Y-130356895D01*
X85649448Y-130356895D02*
X85725639Y-130471180D01*
X85725639Y-130471180D02*
X85801829Y-130547371D01*
X85801829Y-130547371D02*
X85878020Y-130585466D01*
X84925638Y-130356895D02*
X84849448Y-130356895D01*
X84849448Y-130356895D02*
X84773257Y-130394990D01*
X84773257Y-130394990D02*
X84735162Y-130433085D01*
X84735162Y-130433085D02*
X84697067Y-130509276D01*
X84697067Y-130509276D02*
X84658972Y-130661657D01*
X84658972Y-130661657D02*
X84658972Y-130852133D01*
X84658972Y-130852133D02*
X84697067Y-131004514D01*
X84697067Y-131004514D02*
X84735162Y-131080704D01*
X84735162Y-131080704D02*
X84773257Y-131118800D01*
X84773257Y-131118800D02*
X84849448Y-131156895D01*
X84849448Y-131156895D02*
X84925638Y-131156895D01*
X84925638Y-131156895D02*
X85001829Y-131118800D01*
X85001829Y-131118800D02*
X85039924Y-131080704D01*
X85039924Y-131080704D02*
X85078019Y-131004514D01*
X85078019Y-131004514D02*
X85116115Y-130852133D01*
X85116115Y-130852133D02*
X85116115Y-130661657D01*
X85116115Y-130661657D02*
X85078019Y-130509276D01*
X85078019Y-130509276D02*
X85039924Y-130433085D01*
X85039924Y-130433085D02*
X85001829Y-130394990D01*
X85001829Y-130394990D02*
X84925638Y-130356895D01*
X84354210Y-130433085D02*
X84316114Y-130394990D01*
X84316114Y-130394990D02*
X84239924Y-130356895D01*
X84239924Y-130356895D02*
X84049448Y-130356895D01*
X84049448Y-130356895D02*
X83973257Y-130394990D01*
X83973257Y-130394990D02*
X83935162Y-130433085D01*
X83935162Y-130433085D02*
X83897067Y-130509276D01*
X83897067Y-130509276D02*
X83897067Y-130585466D01*
X83897067Y-130585466D02*
X83935162Y-130699752D01*
X83935162Y-130699752D02*
X84392305Y-131156895D01*
X84392305Y-131156895D02*
X83897067Y-131156895D01*
X89944247Y-62155789D02*
X89658533Y-61393884D01*
X89658533Y-61393884D02*
X89372819Y-62155789D01*
X89658533Y-62631979D02*
X89658533Y-63393884D01*
X83558533Y-133626115D02*
X83558533Y-132864211D01*
X83844247Y-132388020D02*
X83558533Y-131626116D01*
X83558533Y-131626116D02*
X83272819Y-132388020D01*
X95267068Y-60537847D02*
X95152782Y-60575942D01*
X95152782Y-60575942D02*
X95114687Y-60614038D01*
X95114687Y-60614038D02*
X95076591Y-60690228D01*
X95076591Y-60690228D02*
X95076591Y-60804514D01*
X95076591Y-60804514D02*
X95114687Y-60880704D01*
X95114687Y-60880704D02*
X95152782Y-60918800D01*
X95152782Y-60918800D02*
X95228972Y-60956895D01*
X95228972Y-60956895D02*
X95533734Y-60956895D01*
X95533734Y-60956895D02*
X95533734Y-60156895D01*
X95533734Y-60156895D02*
X95267068Y-60156895D01*
X95267068Y-60156895D02*
X95190877Y-60194990D01*
X95190877Y-60194990D02*
X95152782Y-60233085D01*
X95152782Y-60233085D02*
X95114687Y-60309276D01*
X95114687Y-60309276D02*
X95114687Y-60385466D01*
X95114687Y-60385466D02*
X95152782Y-60461657D01*
X95152782Y-60461657D02*
X95190877Y-60499752D01*
X95190877Y-60499752D02*
X95267068Y-60537847D01*
X95267068Y-60537847D02*
X95533734Y-60537847D01*
X94619449Y-60956895D02*
X94695639Y-60918800D01*
X94695639Y-60918800D02*
X94733734Y-60842609D01*
X94733734Y-60842609D02*
X94733734Y-60156895D01*
X93971829Y-60956895D02*
X93971829Y-60537847D01*
X93971829Y-60537847D02*
X94009924Y-60461657D01*
X94009924Y-60461657D02*
X94086115Y-60423561D01*
X94086115Y-60423561D02*
X94238496Y-60423561D01*
X94238496Y-60423561D02*
X94314686Y-60461657D01*
X93971829Y-60918800D02*
X94048020Y-60956895D01*
X94048020Y-60956895D02*
X94238496Y-60956895D01*
X94238496Y-60956895D02*
X94314686Y-60918800D01*
X94314686Y-60918800D02*
X94352782Y-60842609D01*
X94352782Y-60842609D02*
X94352782Y-60766419D01*
X94352782Y-60766419D02*
X94314686Y-60690228D01*
X94314686Y-60690228D02*
X94238496Y-60652133D01*
X94238496Y-60652133D02*
X94048020Y-60652133D01*
X94048020Y-60652133D02*
X93971829Y-60614038D01*
X93248019Y-60918800D02*
X93324210Y-60956895D01*
X93324210Y-60956895D02*
X93476591Y-60956895D01*
X93476591Y-60956895D02*
X93552781Y-60918800D01*
X93552781Y-60918800D02*
X93590876Y-60880704D01*
X93590876Y-60880704D02*
X93628972Y-60804514D01*
X93628972Y-60804514D02*
X93628972Y-60575942D01*
X93628972Y-60575942D02*
X93590876Y-60499752D01*
X93590876Y-60499752D02*
X93552781Y-60461657D01*
X93552781Y-60461657D02*
X93476591Y-60423561D01*
X93476591Y-60423561D02*
X93324210Y-60423561D01*
X93324210Y-60423561D02*
X93248019Y-60461657D01*
X92905162Y-60956895D02*
X92905162Y-60156895D01*
X92828972Y-60652133D02*
X92600400Y-60956895D01*
X92600400Y-60423561D02*
X92905162Y-60728323D01*
X91648019Y-60956895D02*
X91648019Y-60156895D01*
X91648019Y-60156895D02*
X91343257Y-60156895D01*
X91343257Y-60156895D02*
X91267067Y-60194990D01*
X91267067Y-60194990D02*
X91228972Y-60233085D01*
X91228972Y-60233085D02*
X91190876Y-60309276D01*
X91190876Y-60309276D02*
X91190876Y-60423561D01*
X91190876Y-60423561D02*
X91228972Y-60499752D01*
X91228972Y-60499752D02*
X91267067Y-60537847D01*
X91267067Y-60537847D02*
X91343257Y-60575942D01*
X91343257Y-60575942D02*
X91648019Y-60575942D01*
X90848019Y-60956895D02*
X90848019Y-60423561D01*
X90848019Y-60156895D02*
X90886115Y-60194990D01*
X90886115Y-60194990D02*
X90848019Y-60233085D01*
X90848019Y-60233085D02*
X90809924Y-60194990D01*
X90809924Y-60194990D02*
X90848019Y-60156895D01*
X90848019Y-60156895D02*
X90848019Y-60233085D01*
X90352782Y-60956895D02*
X90428972Y-60918800D01*
X90428972Y-60918800D02*
X90467067Y-60842609D01*
X90467067Y-60842609D02*
X90467067Y-60156895D01*
X89933734Y-60956895D02*
X90009924Y-60918800D01*
X90009924Y-60918800D02*
X90048019Y-60842609D01*
X90048019Y-60842609D02*
X90048019Y-60156895D01*
M02*
