M48
; DRILL file {KiCad 8.0.4} date 2026-07-14T18:47:19-0500
; FORMAT={-:-/ absolute / metric / decimal}
; #@! TF.CreationDate,2026-07-14T18:47:19-05:00
; #@! TF.GenerationSoftware,Kicad,Pcbnew,8.0.4
; #@! TF.FileFunction,MixedPlating,1,2
FMAT,2
METRIC
; #@! TA.AperFunction,Plated,PTH,ViaDrill
T1C0.300
; #@! TA.AperFunction,Plated,PTH,ComponentDrill
T2C1.000
; #@! TA.AperFunction,NonPlated,NPTH,ComponentDrill
T3C2.200
; #@! TA.AperFunction,NonPlated,NPTH,ComponentDrill
T4C3.200
%
G90
G05
T1
X68.235Y-95.73
X72.1Y-141.64
X72.25Y-143.97
X80.13Y-148.36
X80.22Y-136.46
X83.42Y-130.61
X88.9Y-151.14
X89.11Y-96.04
X89.15Y-97.18
X89.22Y-80.87
X89.89Y-124.07
X90.04Y-122.38
X90.65Y-97.18
X90.7Y-80.84
X90.7Y-96.06
X90.75Y-108.62
X93.59Y-51.1
X93.66Y-121.45
X93.66Y-124.87
X94.49Y-56.55
X94.99Y-111.95
X94.99Y-114.53
X95.65Y-55.33
X96.77Y-85.873
X97.65Y-75.73
X97.66Y-134.61
X97.67Y-118.56
X97.69Y-78.3
X97.72Y-122.41
X97.77Y-83.32
X97.78Y-120.94
X97.79Y-68.28
X97.85Y-67.17
X97.85Y-119.6
X97.86Y-69.26
X98.61Y-60.91
X98.95Y-86.0
X99.49Y-116.74
X99.49Y-119.24
X99.52Y-117.97
X99.55Y-120.58
X99.59Y-134.51
X99.77Y-61.87
X100.02Y-59.58
X100.07Y-68.26
X100.15Y-67.15
X100.26Y-114.89
X100.675Y-120.965
X100.79Y-69.28
X100.8Y-83.73
X101.11Y-113.81
X101.22Y-60.39
X101.55Y-78.27
X101.59Y-119.93
X101.61Y-75.7
X102.03Y-113.16
X102.08Y-117.71
X102.99Y-112.12
X103.0Y-115.69
X103.75Y-51.06
X104.05Y-68.58
X104.05Y-71.44
X105.14Y-131.46
X106.25Y-132.59
X108.81Y-153.49
X109.337Y-126.08
X109.34Y-87.97
X109.53Y-65.57
X110.21Y-95.37
X110.75Y-124.64
X112.59Y-88.03
X112.67Y-95.45
X116.35Y-81.75
X116.52Y-69.85
X116.52Y-93.77
X119.3Y-148.43
X119.37Y-136.39
T2
X68.235Y-98.0
X73.91Y-98.0
X77.935Y-136.285
X77.935Y-141.285
X77.935Y-148.285
X77.935Y-153.285
X80.91Y-128.26
X83.45Y-128.26
X85.98Y-133.285
X85.98Y-135.825
X85.98Y-138.365
X85.98Y-140.905
X85.98Y-143.445
X85.98Y-145.985
X85.98Y-148.525
X85.98Y-151.065
X85.99Y-128.26
X87.66Y-103.5
X87.66Y-109.54
X88.53Y-128.26
X90.91Y-141.26
X90.935Y-136.285
X90.935Y-148.285
X90.935Y-153.285
X91.05Y-47.72
X91.07Y-128.26
X93.0Y-63.0
X93.0Y-65.54
X93.0Y-68.08
X93.0Y-70.62
X93.0Y-73.16
X93.0Y-75.7
X93.0Y-78.24
X93.0Y-80.78
X93.0Y-83.32
X93.0Y-85.86
X93.0Y-88.4
X93.0Y-90.94
X93.0Y-93.48
X93.0Y-96.02
X93.0Y-98.56
X93.0Y-101.1
X93.0Y-103.64
X93.0Y-106.18
X93.0Y-108.72
X93.0Y-111.26
X93.59Y-47.72
X93.61Y-128.26
X96.13Y-47.72
X96.15Y-128.26
X98.67Y-47.72
X98.69Y-128.26
X101.21Y-47.72
X101.23Y-128.26
X103.75Y-47.72
X103.77Y-128.26
X103.955Y-136.285
X103.955Y-141.285
X103.955Y-148.285
X103.955Y-153.285
X106.31Y-128.26
X107.25Y-63.0
X107.25Y-65.54
X107.25Y-68.08
X107.25Y-70.62
X107.25Y-73.16
X107.25Y-75.7
X107.25Y-78.24
X107.25Y-80.78
X107.25Y-83.32
X107.25Y-85.86
X107.25Y-88.4
X107.25Y-90.94
X107.25Y-93.48
X107.25Y-96.02
X107.25Y-98.56
X107.25Y-101.1
X107.25Y-103.64
X107.25Y-106.18
X107.25Y-108.72
X107.25Y-111.26
X108.84Y-133.285
X108.84Y-135.825
X108.84Y-138.365
X108.84Y-140.905
X108.84Y-143.445
X108.84Y-145.985
X108.84Y-148.525
X108.84Y-151.065
X108.85Y-128.26
X111.39Y-128.26
X113.93Y-128.26
X114.955Y-72.0
X114.955Y-77.0
X114.955Y-84.0
X114.955Y-89.0
X114.955Y-96.0
X114.955Y-101.0
X116.955Y-136.285
X116.955Y-141.285
X116.955Y-148.285
X116.955Y-153.285
T3
X68.895Y-48.14
X68.895Y-152.865
X122.505Y-48.14
X122.505Y-152.865
T4
X78.91Y-55.83
X78.91Y-123.26
X115.93Y-55.83
X115.93Y-123.26
M30
